<?xml version="1.0" standalone="no"?>
<!DOCTYPE svg PUBLIC "-//W3C//DTD SVG 1.1//EN" "http://www.w3.org/Graphics/SVG/1.1/DTD/svg11.dtd" >
<svg xmlns="http://www.w3.org/2000/svg">
<metadata></metadata>
<defs>
<font id="allanregular" horiz-adv-x="686" >
<font-face units-per-em="2048" ascent="1638" descent="-410" />
<missing-glyph horiz-adv-x="368" />
<glyph horiz-adv-x="2048" />
<glyph horiz-adv-x="2048" />
<glyph unicode="&#xd;" horiz-adv-x="0" />
<glyph unicode=" "  horiz-adv-x="368" />
<glyph unicode="&#x09;" horiz-adv-x="368" />
<glyph unicode="&#xa0;" horiz-adv-x="368" />
<glyph unicode="!" horiz-adv-x="370" d="M-61 77q0 48 31.5 82t80.5 34h23q39 0 70.5 -35t31.5 -83t-32.5 -81t-84.5 -33h-20q-41 0 -70.5 34t-29.5 82zM78 365l246 1091q8 45 61 45h121q59 0 45 -47l-369 -1092q-14 -45 -55 -45h-12q-47 0 -37 48z" />
<glyph unicode="&#x22;" horiz-adv-x="880" d="M215 1106q1 33 39 122t53.5 165.5t15.5 222.5q0 41 51 41h59q49 8 49 -45q0 -125 -49 -254q-112 -285 -196 -285q-23 0 -22 33zM522 1106q1 33 39 122t53.5 165.5t15.5 222.5q0 41 51 41h59q49 8 49 -45q0 -125 -49 -254q-112 -285 -196 -285q-23 0 -22 33z" />
<glyph unicode="#" horiz-adv-x="1652" d="M95 541l6 26q6 27 12.5 34t20.5 7h313l92 355h-280q-60 0 -39 73l6 27q6 27 12.5 34t20.5 7h317l105 405q12 45 61 45h47q58 0 45 -47l-104 -403h399l105 405q12 45 61 45h47q58 0 45 -47l-104 -403h274q62 0 47 -66q-8 -45 -29.5 -60t-43.5 -15h-283l-90 -355h274 q62 0 47 -65q-8 -45 -29.5 -60.5t-43.5 -15.5h-285l-106 -422q-13 -45 -62 -45h-35q-75 0 -59 66l104 401h-395l-106 -422q-13 -45 -62 -45h-35q-75 0 -59 66l104 401h-276q-59 0 -39 74zM605 608h395l92 355h-397z" />
<glyph unicode="$" horiz-adv-x="827" d="M25 440q3 52 43 84l41 25q31 14 53.5 4t14.5 -81t3 -184.5t73 -113.5q61 2 115.5 82t74 172t21.5 141q2 99 -162 129q-139 27 -137 158q6 180 92 340t215 205l31 119q12 43 59 43h45q55 0 43 -45l-29 -109q84 -25 106.5 -118t10.5 -269q-4 -45 -45 -61l-59 -21 q-25 -4 -36 4t-9 39l10 143q0 107 -23.5 134.5t-56.5 25.5q-78 -14 -127 -120.5t-62.5 -196.5t21.5 -118t129 -46q158 -35 140.5 -221.5t-107.5 -337t-232 -185.5l-26 -100q-12 -43 -60 -43h-34q-66 0 -52 64l25 88q-121 59 -109 370z" />
<glyph unicode="%" horiz-adv-x="1626" d="M-82.5 -32.5q-6.5 20.5 18.5 46.5l1497 1504q47 47 98 47h80q29 0 35 -20.5t-18 -47.5l-1512 -1515q-37 -37 -86 -37l-82 2q-24 0 -30.5 20.5zM143 1129.5q0 150.5 99.5 294t269.5 143.5q106 0 160.5 -75t54.5 -177.5t-39 -206.5t-125 -182t-190.5 -78t-167 65.5 t-62.5 216zM291 1104q0 -133 86 -133q98 0 150.5 106.5t54.5 237.5t-92.5 130t-146.5 -104.5t-52 -236.5zM917 265.5q0 150.5 99.5 294t269.5 143.5q106 0 160.5 -75t54.5 -177.5t-39 -206.5t-125 -182t-190.5 -78t-167 65.5t-62.5 216zM1065 240q0 -133 86 -133 q98 0 150.5 106.5t54.5 237.5t-92.5 130t-146.5 -104.5t-52 -236.5z" />
<glyph unicode="&#x26;" horiz-adv-x="1245" d="M31 336q22 149 116.5 236t217.5 151q-45 121 -45 222.5t49 205.5t151.5 171t251.5 52q35 -4 29 -41l-10 -49q-13 -29 -56 -29q-86 9 -176 -59q-47 -35 -74.5 -107.5t-15.5 -184t115 -318.5q43 -88 139 -232q115 183 156 367h-82q-35 0 -35 14.5t10 42.5l14 45q5 25 31 25 h377q35 0 18 -45l-8 -25q-14 -57 -43 -57h-141q-88 -307 -211 -490q98 -137 199 -258q47 -59 -21.5 -79.5t-126.5 16.5q-76 82 -160 199q-174 -160 -397 -129q-147 22 -220 116t-52 240zM193.5 318q-7.5 -85 42 -143t158 -55t229.5 105q-146 226 -209 377 q-88 -45 -150.5 -122t-70 -162z" />
<glyph unicode="'" horiz-adv-x="380" d="M215 1106q1 33 39 122t53.5 165.5t15.5 222.5q0 41 51 41h59q49 8 49 -45q0 -125 -49 -254q-112 -285 -196 -285q-23 0 -22 33z" />
<glyph unicode="(" horiz-adv-x="811" d="M201 369q0 362 174 703t436 589q43 41 82 37l61 -6q27 -2 32 -23.5t-11 -34.5q-270 -237 -449.5 -577t-179.5 -668q0 -190 42 -374.5t118 -284.5q10 -13 7 -28t-19 -19l-91 -25q-36 -20 -57 20q-145 267 -145 691z" />
<glyph unicode=")" horiz-adv-x="833" d="M-153 -313q4 12 15 20q272 238 449 577t177 712.5t-160 617.5q-12 16 -7 29.5t22 17.5l86 25q37 20 57 -21q148 -270 148 -662.5t-173.5 -732.5t-433.5 -587q-28 -27 -42.5 -33t-41.5 -4l-67 6q-35 4 -29 35z" />
<glyph unicode="*" horiz-adv-x="780" d="M114 1212l10 29q4 21 23.5 34t38.5 5l203 -82l28 229q8 52 76 52h27q26 0 43.5 -17.5t7.5 -50.5l-78 -217l213 72q70 22 70 -39v-31q0 -47 -52 -57l-237 -37l129 -213q27 -47 -19 -74l-30 -16q-51 -29 -74 24l-82 211l-166 -198q-45 -52 -82 -9l-18 21q-35 41 6 80 l197 180l-199 33q-23 2 -33 23.5t-2 47.5z" />
<glyph unicode="+" horiz-adv-x="827" d="M71 641l14 59q4 21 15.5 28t31.5 7h240l59 221q13 45 62 45h51q57 0 45 -47l-57 -219h252q18 0 28 -12t6 -35l-10 -51q-10 -43 -53 -43h-260l-70 -264q-12 -45 -61 -45h-51q-58 0 -46 47l68 262h-227q-49 0 -37 47z" />
<glyph unicode="," horiz-adv-x="464" d="M-50 -309.5q-1 26.5 30.5 102.5t47 170t23.5 227q0 35 43 46l82 18q49 8 49 -41q0 -211 -147 -461q-51 -88 -103 -88q-24 0 -25 26.5z" />
<glyph unicode="-" horiz-adv-x="784" d="M109 641l18 72q6 22 27 22h512q18 0 28.5 -13t6.5 -34l-11 -51q-8 -43 -53 -43h-491q-50 0 -37 47z" />
<glyph unicode="." horiz-adv-x="399" d="M51 77q0 48 32 82t81 34h22q39 0 71 -35t32 -83t-33 -81t-84 -33h-20q-41 0 -71 34t-30 82z" />
<glyph unicode="/" horiz-adv-x="847" d="M41 20.5q-7 20.5 7 42.5l768 1448q23 45 62 45h69q58 0 25 -63l-768 -1448q-27 -45 -61 -45h-70q-25 0 -32 20.5z" />
<glyph unicode="0" horiz-adv-x="858" d="M31 359.5q0 185.5 55 426.5q78 310 223.5 471.5t290.5 161.5t214 -94t69 -279.5t-73 -451.5t-206 -435t-271 -169t-220 92t-82 277.5zM196.5 327.5q12.5 -182.5 117 -182.5t187.5 115t152 381q72 293 60.5 459t-115.5 166t-190 -117t-160 -404q-64 -235 -51.5 -417.5z " />
<glyph unicode="1" horiz-adv-x="622" d="M74.5 975q-9.5 33 25.5 65l272 238q115 115 162 115h78q23 2 31 -15.5t2 -40.5l-330 -1292q-12 -45 -55 -45h-60q-24 0 -35.5 18.5t-5.5 44.5l281 1104l-176 -180q-45 -45 -84 -45h-59q-37 0 -46.5 33z" />
<glyph unicode="2" horiz-adv-x="823" d="M-57 50q-16 50 25 95l589 674q90 103 125 212.5t-1 184t-129 74.5t-156.5 -72.5t-63.5 -181.5q0 -14 -12.5 -28.5t-26.5 -18.5l-67 -14q-21 -4 -32 10t-11 39q0 143 105.5 268t283.5 125q116 0 190 -64.5t88.5 -161.5t-28.5 -219t-144 -233l-545 -600l508 8 q31 0 43.5 -10t3.5 -43l-10 -45q-10 -49 -69 -49h-586q-64 0 -80 50z" />
<glyph unicode="3" horiz-adv-x="782" d="M15 297q0 51 32 65l64 29q24 10 38.5 0t11.5 -48t-2 -83t12.5 -77.5t33 -53t66.5 -23.5q75 0 140.5 83t82 199t-32.5 188.5t-168 72.5q-29 -2 -42 7.5t-7 37.5l8 43q6 49 84 47q113 0 199 76t95 186.5t-23.5 175t-102.5 64.5t-125 -63.5t-61 -175.5q0 -41 -49 -52 l-60 -14q-26 -6 -35.5 10.5t-7.5 42.5q8 150 103.5 263.5t236.5 113.5t208 -90t62 -240q-2 -84 -38 -159q-76 -154 -228 -211q144 -56 142 -289q0 -170 -113 -310.5t-291 -140.5q-143 0 -192 111q-46 96 -41 215z" />
<glyph unicode="4" horiz-adv-x="860" d="M-24 382q-14 52 25 103l593 881q21 27 62 27h76q34 0 39.5 -23.5t-15.5 -52.5l-581 -848l342 2l71 285q13 45 62 45h59q25 0 36 -18.5t5 -45.5l-67 -266h75q33 0 44.5 -10t2.5 -35l-20 -64q-10 -32 -57 -32h-80l-72 -285q-12 -45 -61 -45h-60q-24 0 -35.5 18.5t-5.5 44.5 l68 267h-428q-64 0 -78 52z" />
<glyph unicode="5" horiz-adv-x="866" d="M39 199.5q3 97.5 54 183.5q19 31 56 18l43 -14q49 -16 30 -53q-41 -96 -22.5 -158.5t72 -69t136.5 98t132 243t48 237.5t-52 108q-84 4 -134.5 -35t-105.5 -125q-22 -33 -59 -21l-68 31q-20 8 -25.5 19.5t0.5 39.5l183 648q12 43 61 43h510q60 0 45 -52l-12 -55 q-6 -26 -13.5 -33.5t-27.5 -7.5l-440 8l-109 -381q86 58 203 58q276 0 186 -414q-51 -231 -192.5 -383.5t-274.5 -155.5q-112 -10 -169.5 57.5t-54.5 165z" />
<glyph unicode="6" horiz-adv-x="837" d="M48.5 428q20.5 160 93.5 363q105 286 286 450t312 166l193 -23q18 -2 28.5 -15t0 -27.5t-61.5 -21.5t-122.5 -33.5t-149.5 -74.5q-168 -102 -275 -311q78 39 162 35q238 -12 213 -352q-8 -121 -62.5 -258.5t-155.5 -245t-218 -107.5q-178 0 -236 199q-28 96 -7.5 256z M212 207q25 -103 92 -103q84 0 167 156t99 283q33 266 -129 266q-71 0 -147 -45q-127 -371 -82 -557z" />
<glyph unicode="7" horiz-adv-x="851" d="M100 33.5q-8 23.5 8 50.5l625 1161l-535 -4q-59 0 -43 57l15 54q6 26 13 33.5t27 7.5h642q38 0 58.5 -30t-9.5 -91l-635 -1229q-23 -47 -68 -41l-53 6q-37 2 -45 25.5z" />
<glyph unicode="8" horiz-adv-x="843" d="M31 270q0 234 288 451q-65 47 -103 119.5t-38 156.5q0 156 112.5 291t287.5 135q127 0 201.5 -81.5t74.5 -215.5q0 -90 -47 -176q-82 -145 -223 -225q65 -57 101 -139t36 -168q0 -162 -117 -303.5t-295 -141.5q-278 0 -278 297zM184 287.5q0 -72.5 35 -127t118 -54.5 t150.5 92.5t67.5 192.5q0 193 -121 266q-135 -75 -211 -223q-39 -74 -39 -146.5zM338 1054q0 -93 29.5 -145.5t111.5 -109.5q80 41 144 125q63 86 67 166q12 190 -129 202q-88 6 -155.5 -69.5t-67.5 -168.5z" />
<glyph unicode="9" horiz-adv-x="884" d="M6 274q0 60 41 72l64 19q24 8 38.5 -0.5t14.5 -32t-3 -80.5t11 -102.5t59 -47.5q103 0 211 172q58 88 109 224q-74 -43 -150 -43q-120 0 -179.5 78.5t-59.5 213t56 290t162.5 263t233.5 107.5q160 0 222 -174q30 -90 9.5 -256t-97.5 -387q-220 -623 -543 -623 q-199 0 -199 307zM319 758q0 -178 127 -178q29 0 81.5 18t76.5 51q119 373 86 533q-20 98 -96 98q-66 0 -130.5 -79t-104.5 -200.5t-40 -242.5z" />
<glyph unicode=":" horiz-adv-x="675" d="M51 77q0 48 32 82t81 34h22q39 0 71 -35t32 -83t-33 -81t-84 -33h-20q-41 0 -71 34t-30 82zM256 957.5q0 48.5 31.5 82t81.5 33.5h22q39 0 71 -34.5t32 -83t-33 -81t-84 -32.5h-21q-41 0 -70.5 33.5t-29.5 82z" />
<glyph unicode=";" horiz-adv-x="471" d="M-27 -309.5q0 26.5 32 116t48.5 194.5t20.5 189q0 35 43 46l82 18q49 8 49 -41q0 -211 -148 -461q-51 -88 -102 -88q-25 0 -25 26.5zM238 957.5q0 48.5 31.5 82t80.5 33.5h23q39 0 70.5 -34.5t31.5 -83t-32.5 -81t-84.5 -32.5h-20q-41 0 -70.5 33.5t-29.5 82z" />
<glyph unicode="&#x3c;" horiz-adv-x="968" d="M24 618l6 29q8 45 62 64l784 268q39 12 51.5 -5.5t3.5 -49.5l-8 -33q-14 -51 -53 -62l-655 -202l536 -207q49 -19 39 -76l-8 -41q-6 -33 -20.5 -39t-43.5 6l-655 277q-49 20 -39 71z" />
<glyph unicode="=" horiz-adv-x="921" d="M71 483l19 72q4 16 12 19.5t39 3.5h643q18 0 28.5 -12.5t6.5 -35.5l-10 -51q-11 -43 -54 -43h-647q-47 0 -37 47zM157 813l19 72q4 16 12 19t39 3h643q18 0 28.5 -12t6.5 -35l-10 -51q-11 -43 -54 -43h-647q-47 0 -37 47z" />
<glyph unicode="&#x3e;" horiz-adv-x="968" d="M28 328l8 34q14 50 53 62l656 203l-537 207q-49 18 -39 75l8 39q6 33 20.5 39t43.5 -6l655 -276q49 -21 39 -72l-6 -29q-8 -45 -62 -63l-784 -269q-39 -12 -51 5.5t-4 50.5z" />
<glyph unicode="?" horiz-adv-x="653" d="M8 77q0 48 32 82t81 34h22q39 0 71 -35t32 -83t-33 -81t-84 -33h-20q-41 0 -71 34t-30 82zM100 410q37 235 100.5 288.5t133 62.5t99.5 37.5t56.5 84t47 186.5t14.5 187.5t-30.5 76t-45.5 21.5q-33 -8 -145 -121q-27 -25 -66 -4l-35 22q-36 27 -12 66q43 61 119 120.5 t123 69t125 -28.5t104.5 -102.5t22.5 -187.5q-21 -215 -89.5 -370.5t-181.5 -186.5q-30 -8 -79.5 -18.5t-65.5 -14.5q-16 -43 -34.5 -124t-18.5 -103q0 -47 -62 -41l-43 4q-47 4 -37 76z" />
<glyph unicode="@" horiz-adv-x="1800" d="M125 322.5q-35 240.5 54 481t302 421t491.5 184.5t451.5 -117t232.5 -315.5t2.5 -430t-198.5 -384t-281 -148.5t-200.5 113q-35 -45 -87 -76t-108.5 -31t-109.5 32t-80 91q-66 146 -34 316t107.5 312t153.5 202q66 51 136.5 51t164.5 -59l4 14q11 53 52 53l51 2 q71 0 55 -65l-166 -623q-16 -84 6.5 -134t89 -50t159.5 110.5t154.5 358.5t-82 455.5t-442.5 209.5q-253 -6 -437.5 -180t-254 -398t-30.5 -435q38 -213 186 -361q168 -158 432 -147q23 2 32 -11.5t-3 -33.5l-17 -31q-16 -31 -63 -33q-166 -10 -310.5 49.5t-261 213 t-151.5 394zM698 350q6 -176 101 -176q61 0 102 66q76 120 193 602q-33 22 -76 32q-137 44 -246 -219q-78 -188 -74 -305z" />
<glyph unicode="A" horiz-adv-x="942" d="M-117 30q-5 11 -5 23q0 14 8 29l682 1315q43 82 113 82l82 2q75 0 75 -86v-13l-71 -1337q-4 -43 -62 -45l-69 2q-48 0 -48 47v8l27 387h-364l-199 -403q-20 -42 -64 -42q-6 0 -12 1l-47 4q-35 2 -46 26zM322 592h301l49 711z" />
<glyph unicode="B" horiz-adv-x="921" d="M-17 63l325 1278h-51q-27 0 -47.5 16.5t-13.5 37.5l12 47q4 16 19.5 28.5t27.5 12.5h340q155 0 237 -81q82 -80 81 -244q-1 -170 -79 -272q-78 -100 -155 -132q106 -61 106 -206q0 -40 -8 -85q-37 -213 -170 -338t-368 -125h-215q-24 0 -36 18q-7 12 -8 26q0 9 3 19z M169 139l129 6q104 5 196 89t120 226q9 43 8 79q0 80 -45 116q-25 23 -76 30t-191 7zM347 838l166 -4h7q92 0 144 75q54 77 72 181q6 34 5 66q0 62 -23 112q-35 74 -123 73h-121z" />
<glyph unicode="C" horiz-adv-x="866" d="M26 331q-4 47 -5 98q1 181 55 401q70 282 231.5 474.5t343.5 194.5q25 0 68 -14.5t78.5 -41t70.5 -115.5t43 -204q2 -14 2 -26q0 -29 -43 -41l-57 -17q-23 -4 -43.5 12.5t-22.5 43.5q-16 157 -69 223q-27 10 -60 10h-5q-97 1 -197 -141q-102 -146 -176 -414 q-56 -200 -55 -349q1 -51 7 -96q26 -177 103 -196q153 14 254 236q18 41 32.5 49t49.5 -6l65 -27q20 -9 20 -32q0 -20 -14 -50q-94 -174 -186 -246.5t-227 -72.5h-8q-69 0 -150 64q-85 68 -105 283z" />
<glyph unicode="D" horiz-adv-x="858" d="M-17 102l318 1248l-107 -13q-33 0 -33 34q0 6 1 13l8 58q6 31 35 39q69 15 212 15h49q180 -3 289 -113.5t117 -324.5q1 -20 1 -40q-1 -198 -71 -431q-78 -257 -218 -425t-365 -170q-111 0 -185 11q-57 8 -56 63q0 16 5 36zM157 137q19 -2 95 -2q129 0 237.5 148.5 t166.5 362.5t62 362v17q0 137 -56 229q-58 98 -193 100z" />
<glyph unicode="E" horiz-adv-x="817" d="M-15 63l325 1278h-82q-30 0 -37.5 9.5t0.5 44.5l13 47q8 26 17 33.5t38 7.5h668q27 -1 37 -11q5 -6 6 -17q0 -10 -4 -23l-15 -52q-10 -39 -51 -39h-424l-119 -467h363q18 0 25.5 -14t3.5 -33l-15 -51q-10 -43 -61 -43h-350l-152 -592h393q19 0 26 -14t3 -33l-14 -51 q-11 -43 -62 -43h-491q-24 0 -36 18q-7 12 -8 26q0 9 3 19z" />
<glyph unicode="F" horiz-adv-x="808" d="M-15 63l325 1278h-80q-30 0 -37.5 9.5t1.5 44.5l12 47q8 26 17 33.5t38 7.5h668q27 -1 37 -11q5 -6 6 -17q0 -10 -4 -23l-15 -52q-10 -39 -51 -39h-426l-145 -575h372q19 0 26 -14.5t3 -32.5l-14 -51q-10 -43 -62 -43h-362l-148 -580q-12 -45 -61 -45h-59q-24 0 -36 18 q-7 12 -8 26q0 9 3 19z" />
<glyph unicode="G" horiz-adv-x="880" d="M22 378q-1 22 -1 46q0 210 65 448q73 265 212.5 429.5t267.5 188.5q41 7 77 7q74 0 121 -33q71 -49 109 -162.5t38 -171t-41 -73.5l-72 -21q-20 -4 -33.5 7.5t-16.5 75t-31.5 130t-75.5 78.5q-14 4 -28 4q-85 0 -183 -127q-113 -149 -174.5 -373.5t-66.5 -378.5 q-1 -21 -1 -40q0 -125 28 -197q29 -79 95 -79h8q72 5 146.5 95.5t146.5 325.5h-197q-28 0 -28 30q0 11 4 27l16 58q8 24 31 24h373q32 0 18 -45q-117 -372 -231.5 -511.5t-253.5 -151.5q-17 -1 -33 -1q-117 0 -194 75q-87 85 -95 316z" />
<glyph unicode="H" horiz-adv-x="1091" d="M-17 63l350 1375q12 45 61 45h60q24 0 35.5 -18.5t5.5 -45.5l-142 -551h488l145 570q12 45 62 45h59q25 -1 36 -19q7 -12 7 -27q0 -8 -2 -18l-350 -1374q-13 -45 -62 -45h-59q-25 0 -36 18.5t-5 44.5l170 664h-488l-174 -682q-12 -45 -61 -45h-59q-24 0 -36 18 q-7 12 -8 26q0 9 3 19z" />
<glyph unicode="I" horiz-adv-x="454" d="M-23 63l351 1375q12 45 61 45h60q23 -1 35 -19q7 -12 8 -26q0 -9 -3 -19l-350 -1374q-12 -45 -61 -45h-60q-24 0 -36 18q-8 12 -7 28q0 8 2 17z" />
<glyph unicode="J" horiz-adv-x="468" d="M-227 -209q-6 12 -6 21q0 22 27 34q161 74 206 252l343 1340q12 45 59 45h61q25 0 36 -19q7 -11 7 -26q0 -8 -2 -17l-342 -1345q-41 -158 -131 -238t-184 -106q-13 -4 -22 -4q-19 0 -27 16z" />
<glyph unicode="K" horiz-adv-x="872" d="M-23 63l351 1375q12 45 61 45h60q24 0 35.5 -18.5t4.5 -45.5l-145 -567l492 598q26 33 67 33h86q27 -1 35 -19q3 -6 3 -12q0 -13 -11 -27l-559 -663l209 -701q5 -15 5 -27q0 -34 -40 -34h-76q-29 0 -39 10t-18 41l-193 647l-166 -653q-12 -45 -61 -45h-60q-24 0 -36 18 q-8 12 -7 28q0 8 2 17z" />
<glyph unicode="L" horiz-adv-x="788" d="M-23 63l351 1375q12 45 61 45h60q24 0 35.5 -18.5t4.5 -45.5l-325 -1278h463q19 0 27 -14q5 -9 5 -20q0 -6 -2 -13l-14 -51q-10 -43 -65 -43h-560q-24 0 -36 18q-8 12 -7 28q0 8 2 17z" />
<glyph unicode="M" horiz-adv-x="1171" d="M-23 63l351 1375q12 43 59 45h66q43 0 49 -47q37 -385 41 -553q1 -48 2 -94q0 -116 -8 -220l524 875q22 39 61 39h64q26 1 36 -19q7 -12 7 -28q0 -8 -2 -17l-350 -1374q-13 -45 -62 -45h-59q-25 0 -36 18.5t-5 44.5l235 922q-86 -149 -204.5 -334.5t-155.5 -244.5 q-49 -80 -98 -80h-5l-41 2q-52 4 -52 68q0 7 1 14q6 84 6 188q0 175 -16 408l-246 -961q-12 -45 -61 -45h-60q-24 0 -36 18q-8 12 -7 28q0 8 2 17z" />
<glyph unicode="N" horiz-adv-x="1058" d="M-23 63l351 1375q12 43 59 45h62q22 0 35.5 -15.5t17.5 -48.5l182 -1036l268 1055q13 45 62 45h59q25 -1 36 -19q7 -12 7 -27q0 -8 -2 -18l-350 -1374q-12 -45 -62 -45h-73q-15 0 -25 9t-16 54l-180 1033l-269 -1051q-12 -45 -61 -45h-60q-24 0 -36 18q-8 12 -7 28 q0 8 2 17z" />
<glyph unicode="O" horiz-adv-x="913" d="M14 444q0 187 55.5 372t134.5 331.5t195.5 249t241.5 102.5q86 0 178 -57q64 -39 88.5 -123t24.5 -248t-72 -436q-65 -252 -192 -438q-68 -97 -161 -151t-180 -56h-8q-83 0 -159 41q-146 75 -146 413zM183 442v-8q0 -149 36 -226q37 -79 96 -79q109 0 191 107 q100 139 192 438q67 229 67 392q-1 42 -5 80q-22 185 -127 185q-113 0 -201 -114q-108 -144 -190 -429q-58 -190 -59 -346z" />
<glyph unicode="P" horiz-adv-x="919" d="M-17 63l325 1280h-72.5t-34 17.5t-5.5 40.5l12 41q4 16 18.5 28.5t28.5 12.5h322q165 0 249 -70t86 -206v-10q0 -131 -50 -269q-52 -144 -146 -211.5t-207 -85t-219 -19.5l-146 -567q-12 -45 -61 -45h-59q-24 0 -36 18q-7 12 -8 26q0 9 3 19zM325 754l114 6 q164 12 215.5 104t71.5 188.5t20 159.5q0 121 -139 127q-24 2 -133 2z" />
<glyph unicode="Q" horiz-adv-x="942" d="M23 368q-2 37 -2 73q0 211 55 379q65 196 140.5 338t192.5 241.5t217 99.5t182 -47t106 -132q24 -89 24 -254q0 -163 -66 -408q-66 -248 -172 -420q-119 -193 -295 -236q16 -6 31 -12q57 -28 118.5 -28t126.5 28q21 8 32 -9.5t5 -43.5l-12 -52q-6 -35 -41 -49 q-59 -27 -116 -27q-59 0 -117 29q-57 27 -118 27q-62 0 -128 -29q-7 -3 -13 -3q-13 0 -18 13q-8 17 0 54l14 47q9 41 68 55q-39 12 -72 29q-131 82 -142 337zM190 442v-15q0 -144 36 -222q35 -76 112 -76q6 0 13 1q87 7 173 123t176 412q72 237 72 403q0 41 -4 78 q-23 185 -133.5 185t-208 -129t-179.5 -414q-55 -190 -57 -346z" />
<glyph unicode="R" horiz-adv-x="921" d="M-17 63l325 1278h-71.5t-33 17.5t-5.5 40.5l10 43q4 16 19.5 28.5t27.5 12.5h348q141 0 226 -71t85 -208t-51 -258q-88 -207 -284 -270l94 -606q2 -11 2 -20q0 -50 -47 -50h-70q-27 0 -39 16.5t-16 55.5l-78 579l-127 -2l-154 -604q-12 -45 -61 -45h-59q-24 0 -36 18 q-7 12 -8 26q0 9 3 19zM335 788l127 7q139 6 211.5 117.5t72.5 299.5q0 54 -34.5 87.5t-87 36.5t-150.5 3z" />
<glyph unicode="S" horiz-adv-x="899" d="M55 360v16q0 67 30 77l76 24q21 8 34 -3t13 -36v-14q0 -294 82 -332q7 -1 15 -1q27 0 65 15q84 37 148 152q64 114 76 224q4 34 4 62q0 59 -17 83q-25 35 -129 67l-86 27q-57 18 -99 65.5t-42 118.5q0 127 54 263.5t160.5 236.5t234.5 100t183.5 -108.5t55.5 -313.5 q0 -51 -35 -61l-72 -23q-16 -6 -32.5 5.5t-16.5 37.5q0 271 -88 312q-20 10 -41 10q-23 0 -49 -12q-64 -33 -123 -137.5t-63 -237.5v-9q0 -46 18 -74q20 -30 78 -48l84 -29q119 -41 157 -95q36 -51 35 -148v-11q-2 -221 -144 -407.5t-325 -188.5q-241 0 -241 393z" />
<glyph unicode="T" horiz-adv-x="911" d="M153 1382l14 60q7 26 19 33.5t43 7.5h799q52 0 52 -39q0 -9 -3 -19l-11 -47q-8 -43 -63 -43h-313l-330 -1290q-12 -45 -62 -45h-59q-25 0 -36 18.5t-5 44.5l324 1272h-324q-48 0 -48 31q0 7 3 16z" />
<glyph unicode="U" horiz-adv-x="1013" d="M92 571l221 867q13 45 62 45h59q25 0 36 -18.5t5 -45.5l-231 -913q-29 -113 -28 -193q0 -194 167 -194q98 0 175 82t126 282l244 955q12 45 61 45h52q25 -1 35 -19q6 -11 6 -25q0 -9 -3 -20l-239 -950q-66 -264 -187 -371q-49 -47 -124.5 -79.5t-176.5 -32.5 q-139 2 -211 73q-86 91 -86 258q0 110 37 254z" />
<glyph unicode="V" horiz-adv-x="919" d="M122 111l72 1323q6 45 62 45h69q48 0 48 -45q0 -5 -1 -11l-84 -1245l621 1262q20 42 66 42q6 0 12 -1l45 -4q49 -5 49 -45q0 -14 -6 -33l-684 -1317q-37 -78 -123 -82l-64 -2h-5q-39 0 -59 30q-19 27 -19 68q0 7 1 15z" />
<glyph unicode="W" horiz-adv-x="1433" d="M130 737q44 420 185 717q14 29 55 29h90q33 -2 33 -30q0 -19 -16 -50q-87 -157 -157 -525q-42 -217 -41 -393q0 -122 20 -225q155 170 291.5 470t183.5 532l4 4q18 90 39 164q18 53 71 53h74q34 0 34 -30q0 -13 -7 -32q-82 -241 -113 -577q-10 -110 -10 -212 q0 -212 43 -394q186 211 312 566t139 630q2 28 8 38.5t32 10.5h82q32 -1 42 -11q8 -9 8 -30v-10q-11 -218 -90.5 -491t-235.5 -541.5t-346 -399.5h-25q-37 0 -51 41q-71 204 -71 552q0 36 1 73q-73 -177 -200 -360t-238 -306h-51q-37 0 -51 41q-59 184 -59 432q0 124 15 264 z" />
<glyph unicode="X" horiz-adv-x="823" d="M-55 86l387 694l-133 623q-5 18 -5 33q0 49 59 49h49q67 0 78 -70l92 -534l291 569q16 35 67 35h66q56 0 56 -36q0 -20 -17 -50l-412 -715l135 -618q6 -27 -3 -46.5t-34 -19.5h-76q-51 0 -65 70l-86 512l-266 -535q-21 -47 -74 -47h-76q-48 0 -48 36q0 19 15 50z" />
<glyph unicode="Y" horiz-adv-x="819" d="M155 63l143 566q0 135 -31.5 384t-64.5 378q-13 36 0.5 62t44.5 28l57 8h10q21 0 31 -7q12 -9 19 -42q63 -381 63 -672q191 285 269.5 421t140.5 267q12 27 51 27h10l64 -8q22 -2 32 -21q3 -7 3 -16q0 -16 -11 -37q-235 -412 -530 -805l-140 -551q-12 -45 -61 -45h-59 q-25 0 -36 18q-7 12 -7 28q0 8 2 17z" />
<glyph unicode="Z" horiz-adv-x="937" d="M-48 28q-7 13 -7 28q0 17 8 38l815 1241h-456q-47 0 -47 36q0 8 2 18l18 65q6 29 30 29h3h667q40 0 40 -30q0 -6 -1 -13l-12 -60q-8 -45 -53 -45h-4h-8l-785 -1188h488q49 0 49 -38q0 -8 -2 -17l-11 -47q-12 -45 -67 -45h-602q-51 0 -65 28z" />
<glyph unicode="[" horiz-adv-x="518" d="M-117 -244l504 1946q18 63 84 63h303q62 0 47 -65l-4 -21q-4 -22 -25.5 -39.5t-43.5 -17.5h-230l-471 -1815h191q61 0 47 -65l-4 -21q-5 -22 -26.5 -39.5t-43.5 -17.5h-268q-84 0 -60 92z" />
<glyph unicode="\" horiz-adv-x="614" d="M182 1493q-6 63 51 63h47q49 0 53 -45l125 -1466q2 -20 -11 -32.5t-34 -12.5h-57q-43 0 -47 41z" />
<glyph unicode="]" horiz-adv-x="593" d="M-260 -270l4 20q4 23 25.5 40t44.5 17h229l463 1813h-188q-62 0 -47 66l4 22q4 23 25.5 40t43.5 17h271q84 0 59 -92l-497 -1945q-19 -64 -84 -64h-306q-61 0 -47 66z" />
<glyph unicode="^" horiz-adv-x="860" d="M4 509q-6 11 4 26l471 677q60 91 160 91h23q28 0 49.5 -20.5t23.5 -59.5l60 -691q0 -34 -60 -34h-43q-53 0 -53 37l-39 618l-428 -627q-16 -28 -43 -28h-94q-25 0 -31 11z" />
<glyph unicode="_" horiz-adv-x="1087" d="M-105 -182l18 71q6 23 27 23h901q43 0 35 -47l-11 -51q-8 -43 -53 -43h-880q-50 0 -37 47z" />
<glyph unicode="`" horiz-adv-x="493" d="M121 1418.5q5 11.5 22 11.5h108q41 0 64 -35l116 -189q11 -16 1.5 -27.5t-27.5 -11.5h-33q-31 0 -59 29l-183 190q-14 21 -9 32.5z" />
<glyph unicode="a" horiz-adv-x="770" d="M18 162q-7 21 -7 58q1 42 9 106q16 118 93 331t158 297q79 82 197 82h6q68 0 130 -37q8 48 47 48l47 2q59 -2 59 -47q0 -12 -4 -27l-246 -819q64 47 127 135q23 33 51 14l50 -33q19 -13 19 -29q0 -11 -9 -22q-84 -98 -154.5 -152.5t-167.5 -76.5q-4 -1 -7 -1 q-22 0 -30 23l-38 113q-58 -76 -99 -104.5t-63 -28.5h-4q-17 0 -50.5 23.5t-66.5 61.5t-47 83zM160 227q3 -37 36 -54q6 -3 12 -3q34 0 98 70q76 84 133.5 230t133.5 415q-56 31 -101 31q-42 0 -76 -28q-68 -58 -134 -238q-66 -182 -86 -284q-17 -89 -16 -128v-11z" />
<glyph unicode="b" horiz-adv-x="759" d="M-6 66l375 1443q12 45 62 45h47q47 0 47 -32q0 -7 -2 -15l-178 -698l30 51q43 72 98.5 123t90.5 51h4q16 0 51 -23.5t69 -65.5t46 -88q5 -19 4 -49q0 -46 -10 -119q-18 -122 -96.5 -335t-158 -287.5t-198.5 -74.5q-68 0 -131 39q-17 -31 -55 -31h-35q-62 0 -62 48 q0 9 2 18zM177 143q53 -32 98 -32q39 0 71 24q72 51 140 235q66 186 86 290q17 91 17 130v11q-3 37 -37 54q-5 3 -12 3q-34 0 -99 -74q-78 -88 -134.5 -233t-123.5 -389z" />
<glyph unicode="c" horiz-adv-x="604" d="M10 454q55 230 135 352t157 186q68 56 145 55q10 -1 21 -1q89 -8 189 -120q19 -20 19 -38q0 -14 -11 -26l-34 -39q-20 -22 -38 -22q-13 0 -24 12l-22 25q-65 66 -106 66q-5 0 -11 -1q-74 -14 -156 -157.5t-118 -295.5q-24 -101 -23 -181q0 -40 6 -74q4 -25 38 -45.5 t52 -16.5q62 33 137 123q12 17 30 17q16 0 36 -13l31 -20q18 -11 18 -29q0 -49 -129 -152q-74 -63 -115 -75q-9 -2 -20 -2q-39 0 -103 33q-82 42 -102 83q-29 64 -29 155q0 88 27 201z" />
<glyph unicode="d" horiz-adv-x="794" d="M11 207v7q1 159 91 409q92 255 172 335q79 78 194 78h6q68 0 129 -37l137 510q13 45 62 45h53q48 0 48 -31q0 -7 -3 -16l-389 -1351q59 47 123 135q22 33 51 14l49 -33q33 -22 10 -51q-84 -98 -154.5 -152.5t-166.5 -76.5q-5 -1 -10 -1q-21 0 -27 23l-39 113 q-41 -57 -87 -95t-75 -38h-4q-39 0 -103.5 67.5t-66.5 145.5zM172 201q13 -31 36 -31q14 0 31 10q96 62 172.5 228.5t160.5 476.5q-55 31 -100 31q-38 0 -70 -23q-68 -49 -131 -218t-91 -297q-17 -74 -17 -122q0 -35 9 -55z" />
<glyph unicode="e" horiz-adv-x="638" d="M7 129q-8 41 -8 90q0 135 59 333q80 269 223 406q51 46 125 68q29 9 59 9q47 0 98 -21q82 -35 82 -196q-1 -168 -145 -316q-144 -146 -350 -219q-7 -38 -7 -67q0 -87 63 -99q75 28 186 153q19 17 41 4l39 -24q27 -21 18 -45q-39 -74 -144 -157q-92 -73 -152 -73 q-9 0 -17 2q-145 37 -170 152zM175 416q96 41 164.5 96t113 134t44.5 162t-48 83q-94 0 -164.5 -153.5t-109.5 -321.5z" />
<glyph unicode="f" horiz-adv-x="587" d="M65 47l224 850h-115q-31 0 -31 27q0 10 4 22l15 55q8 39 45 39h121l24 95q53 200 134 300.5t151 120.5q41 12 75 12q17 0 33 -3l125 -33q44 -11 44 -41q0 -15 -11 -35l-27 -49q-8 -18 -33 -18q-15 0 -38 8l-131 45q-105 -86 -164 -307l-25 -95h148q33 0 33 -27 q0 -8 -3 -18l-14 -53q-14 -45 -55 -45h-148l-223 -852q-12 -45 -59 -45h-53q-25 0 -37 14q-10 10 -10 24q0 4 1 9z" />
<glyph unicode="g" horiz-adv-x="739" d="M-129 -162l31 43q21 24 44 24q12 0 24 -7l227 -140q10 -4 18 -4q33 0 50 60l98 358q-45 -76 -100.5 -127t-90.5 -51h-4q-16 0 -51 23.5t-67.5 63.5t-45.5 85q-6 19 -6 52q0 45 10 116q19 123 93.5 330.5t155.5 289.5t204 82q68 0 131 -39q12 41 43 41l70 2h4q39 0 39 -36 q0 -8 -2 -17q-47 -188 -301 -1089q-53 -191 -162 -250q-57 -35 -89 -37h-3q-32 0 -94 35l-209 118q-30 15 -30 39q0 16 13 35zM147 227q3 -37 37 -54q5 -3 11 -3q35 0 101 76q79 90 134.5 233.5t122.5 386.5l6 19q-55 31 -100 31q-39 0 -71 -23q-68 -49 -136.5 -234.5 t-87.5 -290.5q-17 -90 -17 -130v-11z" />
<glyph unicode="h" horiz-adv-x="864" d="M-5 53l376 1456q13 45 62 45h47q47 0 47 -32q0 -7 -2 -15l-203 -796l-76 -246l211 352q68 111 139.5 167t123.5 56h43q32 0 50.5 -11t30.5 -50q4 -13 3 -30q0 -34 -15 -85l-229 -835q-6 -29 -33 -29h-106q-31 0 -17 49l215 703q15 55 15 72.5t-13.5 17.5t-33 -18.5 t-52.5 -67.5q-39 -56 -93 -145t-96 -154.5t-121 -186t-144 -241.5q-17 -29 -50 -29h-57q-13 0 -21 16q-4 9 -4 19q0 8 3 18z" />
<glyph unicode="i" horiz-adv-x="391" d="M-27 47l250 952q10 41 57 41h68q27 0 36 -9t3 -34l-248 -952q-12 -45 -61 -45h-60q-47 0 -47 32q0 7 2 15zM250 1252q0 40 28.5 70t71.5 30h19q34 0 63 -31t29 -71t-30 -68.5t-75 -28.5h-16q-35 0 -62.5 29.5t-27.5 69.5z" />
<glyph unicode="j" horiz-adv-x="411" d="M-323 -296q4 22 27 30q90 35 178 124t125 226l242 915q10 41 55 41h63q41 0 41 -29q0 -6 -2 -14l-250 -952q-49 -182 -165.5 -285.5t-223.5 -134.5q-13 -4 -23 -4q-26 0 -40 21l-17 24q-11 13 -11 29q0 5 1 9zM271 1252q0 40 28.5 70t72.5 30h18q35 0 63.5 -31t28.5 -71 t-29.5 -68.5t-74.5 -28.5h-17q-35 0 -62.5 29.5t-27.5 69.5z" />
<glyph unicode="k" horiz-adv-x="745" d="M-16 66l375 1443q12 45 61 45h47q48 0 48 -32q0 -7 -2 -15l-224 -878l310 389q16 22 55 22h76q34 0 34 -26q0 -21 -22 -45l-352 -414l159 -500q4 -13 4 -23q0 -32 -47 -32h-55q-31 0 -42 8t-19 37l-133 457l-117 -457q-12 -45 -62 -45h-34q-63 0 -63 45q0 10 3 21z" />
<glyph unicode="l" horiz-adv-x="378" d="M-16 66l375 1443q12 45 61 45h47q48 0 48 -32q0 -7 -2 -15l-373 -1462q-12 -45 -62 -45h-34q-63 0 -63 45q0 10 3 21z" />
<glyph unicode="m" horiz-adv-x="1333" d="M-6 53l248 934q10 39 18.5 46t22.5 7h84q38 0 38 -32q0 -11 -5 -27l-154 -516l213 352q62 103 137.5 163t124.5 60h43q33 0 51.5 -11t30.5 -50q4 -13 3 -30q0 -34 -15 -85l-104 -383l196 338q64 111 137.5 166t124.5 55h43q33 0 51.5 -11t29.5 -50q4 -13 4 -30 q0 -34 -15 -85l-229 -835q-7 -29 -33 -29h-107q-30 0 -16 49l215 703q16 55 16 72.5t-14 17.5t-33.5 -18.5t-52.5 -67.5q-39 -56 -85 -130.5t-121 -191.5t-99 -158q-92 -149 -137 -247q-13 -29 -35 -29h-105q-30 0 -16 49l215 703q16 55 16 72.5t-14 17.5t-33.5 -18.5 t-52.5 -67.5q-39 -56 -94 -145t-139 -220q-158 -241 -224 -362q-16 -29 -49 -29h-57q-13 0 -21 16q-5 10 -4 21q0 8 2 16z" />
<glyph unicode="n" horiz-adv-x="866" d="M-6 53l248 934q10 53 41 53h84q37 0 37 -34q0 -11 -4 -25l-154 -516l213 352q68 111 139.5 167t122.5 56h43q33 0 51.5 -11t30.5 -50q4 -13 3 -30q0 -34 -15 -85l-229 -835q-6 -29 -33 -29h-107q-30 0 -16 49l215 703q16 55 16 72.5t-14 17.5t-33.5 -18.5t-52.5 -67.5 q-39 -56 -94 -145t-139 -220q-158 -241 -224 -362q-16 -29 -49 -29h-57q-13 0 -21 16q-5 10 -4 21q0 8 2 16z" />
<glyph unicode="o" d="M6 297q9 274 137 519q126 241 320 241h6q103 -6 160 -103q36 -56 36 -179q0 -23 -1 -48q-8 -303 -166 -561q-105 -182 -280 -182h-13q-65 2 -121 57q-78 75 -78 233v23zM172 317v-20q0 -164 64 -170h3q58 0 116 88q139 219 147 490v28q0 97 -12 133q-14 41 -61 42h-2 q-45 0 -82 -43q-38 -44 -74 -122q-91 -182 -99 -426z" />
<glyph unicode="p" horiz-adv-x="745" d="M-118 -344l344 1341q12 43 55 43h60q43 0 43 -30q0 -7 -2 -15l-47 -182l28 47q43 72 98.5 123t90.5 51h4q16 0 51 -23.5t66.5 -63.5t44.5 -82q7 -20 7 -58q0 -44 -9 -112q-15 -128 -97 -344t-159.5 -287.5t-196.5 -71.5q-68 0 -129 37l-100 -394q-13 -45 -62 -45h-37 q-33 0 -46 18q-9 13 -9 31q0 8 2 17zM165 143q54 -31 100 -31q38 0 71 22q70 48 137.5 234.5t86.5 291.5q17 90 17 130v11q-3 37 -37 55q-5 3 -12 3q-34 0 -100 -76q-79 -91 -134.5 -234t-122.5 -387z" />
<glyph unicode="q" horiz-adv-x="743" d="M12 163q-6 19 -6 56q0 44 8 114q16 128 97.5 344t159.5 287.5t197 71.5q67 0 129 -37q10 41 55 41h60q41 0 41 -30q0 -7 -3 -17l-348 -1358q-12 -45 -61 -45h-37q-33 0 -46 18.5t-7 47.5l143 557l-27 -45q-43 -72 -98 -123t-90 -51h-4q-16 0 -51 23.5t-67 63.5t-45 82z M154 227q3 -37 36 -55q6 -3 13 -3q34 0 100 76q79 91 134 234.5t123 386.5l6 19q-54 31 -100 31q-39 0 -71 -22q-71 -48 -138.5 -234.5t-86.5 -291.5q-17 -88 -17 -128q0 -7 1 -13z" />
<glyph unicode="r" horiz-adv-x="577" d="M-7 47l250 952q10 41 57 41h63q27 0 36 -9t3 -34l-59 -231q65 106 120.5 176t81 87.5t89.5 17.5h20q46 0 46 -27q0 -8 -5 -19q-10 -24 -50 -60t-108.5 -123t-68.5 -113q0 -54 51 -101q12 -10 7 -21.5t-21 -15.5l-78 -14q-33 -6 -50.5 7t-60.5 93l-157 -608 q-13 -45 -62 -45h-59q-47 0 -47 31q0 7 2 16z" />
<glyph unicode="s" horiz-adv-x="655" d="M-28 142q-12 28 -12 49.5t12 35.5l45 37q21 21 45.5 19t33.5 -36t50 -82t76 -50q61 10 106 72.5t45 143.5t-15 103.5t-69 34.5l-45 10q-79 19 -112 66t-33 127q0 133 95 257t210 124h31q70 0 129 -53.5t96 -131.5q8 -16 8 -29q0 -22 -22 -36l-62 -35q-19 -13 -32 -13 q-18 0 -29 23q-2 4 -16.5 38t-23.5 48.5t-31.5 32.5t-51.5 23q-51 -11 -96 -68t-45 -162q0 -45 21.5 -62.5t76.5 -29.5l57 -12q125 -27 125 -207q0 -107 -80 -246q-38 -65 -104 -110.5t-143 -45.5h-15q-78 0 -139 54.5t-86 110.5z" />
<glyph unicode="t" horiz-adv-x="475" d="M20 66l213 831h-82q-30 0 -30 26q0 10 4 23l16 55q12 39 45 39h82l82 318q12 45 61 45h52q47 0 47 -32q0 -7 -2 -15l-80 -316h106q34 0 34 -26q0 -8 -3 -19l-14 -53q-15 -45 -54 -45h-106l-217 -852q-12 -45 -62 -45h-38q-32 0 -46 18q-9 13 -10 31q0 8 2 17z" />
<glyph unicode="u" horiz-adv-x="827" d="M15 250l209 762q6 28 32 28h107q31 0 16 -49l-207 -710q-8 -37 -8 -59q0 -15 4 -23q5 -7 12 -7q28 0 91 95q80 121 413 725q17 28 50 28h77q13 0 21 -16q5 -9 5 -20q0 -8 -3 -17l-248 -934q-10 -53 -41 -53h-84q-37 0 -37 34q0 11 4 25l142 478l-187 -314 q-65 -112 -132.5 -167.5t-118.5 -55.5h-13q-63 0 -99 70q-19 37 -19 86q0 43 14 94z" />
<glyph unicode="v" horiz-adv-x="743" d="M145 965v10q0 65 49 65h57q47 0 49 -47q13 -237 13 -431q0 -209 -15 -369q187 309 316 817q9 39 49 39h8l57 -5q45 -8 45 -37q0 -7 -2 -14q-161 -549 -372 -876q-77 -117 -132 -117h-2l-57 4q-58 4 -58 84q0 8 1 16q11 169 11 358q0 236 -17 503z" />
<glyph unicode="w" horiz-adv-x="1206" d="M145 104q15 285 15 544q0 180 -7 347v6q0 39 49 39h62q45 0 47 -47q4 -119 4 -236q0 -292 -25 -567q113 181 209 441t103 370q4 39 49 39h65q39 0 45 -47q16 -223 16 -423t-16 -377q187 307 316 817q9 39 49 39h8l57 -5q23 -2 36 -16q9 -10 9 -22q0 -6 -2 -13 q-161 -549 -372 -876q-75 -117 -127 -117h-2l-62 4q-58 4 -58 84q0 8 1 16q9 188 9 358q0 57 -1 111q-76 -200 -231 -456q-71 -117 -123 -117h-2l-64 4q-58 4 -58 84q0 8 1 16z" />
<glyph unicode="x" horiz-adv-x="724" d="M-97 18q-4 7 -4 13q0 10 9 20q248 301 371 471q-51 215 -119 443q-8 23 -8 39q0 36 41 36h57q45 0 60 -47q55 -190 92 -344q90 131 227 365q14 26 55 26h70q30 0 30 -22q0 -18 -20 -51q-110 -191 -323 -482q47 -209 84 -442q6 -41 -33 -43l-62 -6q-7 -1 -13 -1 q-17 0 -25 9q-10 12 -21 55q-20 140 -53 291q-141 -180 -186.5 -234.5t-53.5 -64.5t-10 -13t-9 -11.5t-12.5 -10.5t-13.5 -6q-12 -8 -33 -8h-59q-29 0 -38 18z" />
<glyph unicode="y" horiz-adv-x="831" d="M-49 -200v6q0 20 12 32l31 43q22 23 44 23q12 0 24 -6l227 -140q10 -6 20 -6q30 0 48 62l198 702l-47 -90l-121 -203q-65 -112 -132.5 -167.5t-119.5 -55.5h-12q-43 0 -72 31q-46 50 -46 127q0 42 14 92l209 762q8 28 32 28h107q31 0 16 -49l-207 -710q-9 -37 -9 -57 q0 -16 5 -23q5 -8 13 -8q28 0 91 94q81 121 412 725q17 28 49 28h78q13 0 21 -16q5 -9 5 -20q0 -8 -3 -17l-301 -1089q-49 -189 -162 -250q-49 -27 -66 -33q-11 -5 -25 -5q-37 0 -95 36l-209 118q-27 13 -29 36z" />
<glyph unicode="z" horiz-adv-x="749" d="M-68 46q-4 12 -4 24q0 32 27 59l641 780h-287l-32 -131q-11 -41 -64 -45l-45 -4q-26 -2 -38.5 11.5t-6.5 37.5l59 221q13 41 60 41h461q53 0 77 -47q8 -15 8 -32q0 -37 -36 -84l-621 -746h295l33 131q10 41 63 45l43 4q27 2 39.5 -11t6.5 -38l-58 -217q-12 -45 -61 -45 h-486q-60 0 -74 46z" />
<glyph unicode="{" horiz-adv-x="569" d="M-13 -115q-17 107 70.5 265.5t125.5 242.5q82 187 -75 248l-47 18q-50 21 -35 80l14 60q10 41 72 53l82 16q96 21 134 67t36 124t-13 194q-28 230 40.5 373t306.5 148h143q61 0 47 -66l-8 -39q-4 -22 -24.5 -37.5t-43.5 -15.5h-141q-123 0 -154.5 -75t-19.5 -277 q14 -144 16 -237t-54 -164.5t-224 -123.5q78 -37 110.5 -111.5t19 -144t-47 -142.5t-79.5 -160t-76 -158.5t-10.5 -134t99.5 -62.5h115q61 0 47 -62l-8 -38q-4 -23 -25.5 -40.5t-44.5 -17.5h-12l-90 -4q-103 -2 -168.5 60.5t-77.5 160.5z" />
<glyph unicode="|" horiz-adv-x="362" d="M-138 -344l475 1853q12 45 61 45h39q57 0 45 -47l-479 -1872q-12 -45 -62 -45h-26q-33 0 -46.5 18.5t-6.5 47.5z" />
<glyph unicode="}" horiz-adv-x="657" d="M-229 -270l8 39q4 22 24.5 37.5t43.5 15.5h141q123 0 156 75.5t19.5 248.5t-15.5 227q-4 131 43 190q59 78 184 119q35 10 49 16q-78 37 -111.5 112t-18 144.5t48 142t79.5 159.5t75 158t11.5 134.5t-100.5 63.5h-115q-61 0 -47 61l8 39q4 23 24.5 41.5t57.5 15.5l90 5 q103 2 168.5 -60.5t80 -174.5t-110.5 -325q-50 -86 -86 -167q-86 -189 73 -250l47 -19q50 -20 35 -80l-14 -59q-10 -41 -72 -53q-176 -29 -215 -79t-37 -128t13 -195q28 -229 -39 -372q-70 -144 -308 -148h-143q-61 0 -47 66z" />
<glyph unicode="~" horiz-adv-x="886" d="M110 793l13 34q6 29 33 41q55 31 148 35t205.5 -39t285.5 13q26 8 40.5 -10.5t6.5 -49.5l-11 -41q-6 -35 -61 -57q-145 -57 -298 6t-323 -2q-28 -10 -38.5 9.5t-0.5 60.5z" />
<glyph unicode="&#xa1;" horiz-adv-x="540" d="M52 25l368 1091q15 45 56 45h12q47 0 37 -47l-246 -1091q-8 -46 -61 -46h-121q-60 0 -45 48zM420 1398q0 46 33 77.5t84 31.5h23q41 0 73.5 -34.5t32.5 -78.5t-35 -75t-86 -31h-18q-43 0 -75 32t-32 78z" />
<glyph unicode="&#xa2;" horiz-adv-x="675" d="M18 508q34 186 147.5 346t244.5 190l60 224q12 43 59 43h45q56 0 43 -45l-59 -226q92 -32 110.5 -154t-36.5 -274q-11 -28 -58 -20l-49 12q-55 10 -37 60q43 145 38 218.5t-52 73.5t-136 -107.5t-141.5 -281.5t-34 -293.5t73 -119.5t110.5 71.5t95 161.5q15 27 43 19 l68 -29q47 -21 24 -70q-106 -227 -270 -260l-53 -199q-13 -43 -60 -43h-34q-66 0 -52 64l52 184q-86 37 -130.5 153t-10.5 302z" />
<glyph unicode="&#xa3;" horiz-adv-x="933" d="M-155.5 0q-7.5 16 1.5 53l16 51q4 25 18 35q62 41 183.5 179.5t165.5 271.5h-101q-45 0 -33 57l11 43q6 43 30 41h107q-23 250 31.5 411t155 234.5t239.5 66.5t210.5 -123t10.5 -337q-14 -55 -49 -63l-68 -19q-30 -8 -40.5 10.5t-2.5 40.5q123 340 -88 355 q-135 0 -200.5 -144.5t-49.5 -431.5h273q47 0 37 -47l-11 -53q-8 -41 -53 -41h-250q-16 -101 -83.5 -202t-139.5 -179q104 8 250.5 -46t312.5 13q21 6 34 -8t5 -43l-12 -57q-10 -37 -72.5 -56.5t-139.5 -24.5t-213 46t-281.5 3t-171 -50t-33 14z" />
<glyph unicode="&#xa4;" horiz-adv-x="1048" d="M91 65.5q-5 16.5 17 49.5l131 190q-8 41 -6 94q8 224 138 426l-78 252q-23 70 8 90l70 39q26 19 49.5 2.5t33.5 -55.5l54 -182q94 61 176 60t123 -25l104 159q33 49 70 27l51 -31q35 -20 37 -38.5t-21 -47.5l-143 -182q16 -53 12 -137q-8 -238 -168 -463l70 -215 q10 -29 1 -44.5t-44 -33.5l-35 -20q-82 -43 -102 45l-35 143q-74 -33 -143.5 -32t-112.5 26l-90 -148q-23 -32 -41.5 -32t-28.5 8l-61 41q-31 18 -36 34.5zM405 416q-4 -154 68 -158q61 -2 123 72q145 182 153 407q2 101 -13 134.5t-63.5 34.5t-87 -35.5t-77.5 -100.5 q-92 -152 -103 -354z" />
<glyph unicode="&#xa5;" horiz-adv-x="983" d="M-41 367l10 34q9 27 17 34t28 7h848q47 0 37 -45l-8 -41q-10 -43 -68 -43h-819q-61 0 -45 54zM14 625l11 34q8 27 16 34t29 7h848q47 0 36 -45l-8 -41q-10 -43 -67 -43h-820q-61 0 -45 54zM231 63l144 566q0 135 -32 384t-64 378q-13 36 0.5 62t44.5 28l57 8q29 2 41 -7 t18 -42q64 -381 64 -672q190 285 269 421t140 267q15 31 62 27l63 -8q23 -2 32 -21.5t-7 -52.5q-236 -412 -530 -805l-140 -551q-12 -45 -61 -45h-60q-24 0 -35.5 18.5t-5.5 44.5z" />
<glyph unicode="&#xa6;" horiz-adv-x="366" d="M-140 -365l202 779q13 45 62 45h39q57 0 45 -47l-203 -779q-12 -45 -61 -45h-39q-58 0 -45 47zM138 737l203 779q12 45 61 45h39q58 0 45 -48l-202 -778q-13 -45 -62 -45h-39q-57 0 -45 47z" />
<glyph unicode="&#xa7;" horiz-adv-x="854" d="M-31 160q0 57 39 76l60 30q26 15 42.5 4.5t18.5 -24t-2 -61.5t0 -94t18.5 -84t62.5 -27.5t104.5 81t65.5 153.5t-11.5 122t-90.5 76q-161 84 -161 198q0 140 70.5 259.5t162.5 166.5q-16 33 -16 70q0 172 103.5 309t215 137t184 -88t60.5 -266q-4 -37 -39 -51l-72 -21 q-22 -4 -33.5 3.5t-9.5 33.5q15 242 -90 248q-57 -14 -104 -103t-49 -140.5t27.5 -80t132 -90t102.5 -191.5t-59.5 -256t-163.5 -185q6 -25 6 -54q0 -178 -104.5 -330.5t-270.5 -152.5q-199 0 -199 332zM281 669.5q0 -51.5 28.5 -79t78.5 -57t69 -44.5q55 31 96 99.5t46 166 t-124 163.5q-86 6 -140 -95.5t-54 -153z" />
<glyph unicode="&#xa8;" horiz-adv-x="1071" d="M297 1334q0 40 28.5 70t71.5 30h19q35 0 63.5 -31t28.5 -71t-29.5 -68.5t-75.5 -28.5h-16q-35 0 -62.5 29.5t-27.5 69.5zM625 1334q0 40 28.5 70t71.5 30h18q35 0 64 -31t29 -71t-30 -68.5t-75 -28.5h-16q-35 0 -62.5 29.5t-27.5 69.5z" />
<glyph unicode="&#xa9;" horiz-adv-x="1593" d="M113 474.5q-30 195.5 28 393.5q73 267 282 447t459 180q295 0 465 -205q76 -90 113 -215q65 -237 -4 -485q-80 -289 -277 -447.5t-470 -158.5t-456 182q-110 113 -140 308.5zM278 819q-78 -303 47 -513t397 -210q222 0 378.5 158t217.5 401q39 136 22.5 266t-66.5 233 t-151.5 166.5t-234.5 63.5q-219 0 -383 -160.5t-227 -404.5zM469.5 455.5q-29.5 115.5 16.5 313.5t178 332t296 120q123 -15 153.5 -107t-49.5 -289q-12 -26 -43 -22l-63 12q-41 6 -29 43q96 248 -2 264q-49 8 -111.5 -39t-109.5 -130t-83 -213t-19.5 -256t94.5 -136 q51 10 109.5 92t84.5 160q9 27 33 16l76 -30q31 -15 18 -43q-57 -135 -143 -216t-174 -81t-145.5 47t-87 162.5z" />
<glyph unicode="&#xaa;" horiz-adv-x="604" d="M101.5 968.5q-3.5 96.5 55 174.5t146.5 117.5t176 33.5q39 158 -2 181q-61 -7 -159 -121l-17 -19q-12 -12 -26 -2l-37 35q-19 14 -13 31q25 51 108 113.5t133 60.5t94 -28.5t54.5 -76t-8.5 -151.5q-43 -219 -131 -385q78 43 117 110q12 23 33 13l30 -15q25 -12 13 -30 q-94 -160 -228 -191q-36 -6 -47 12l-22 39q-88 -77 -177 -37.5t-92.5 136zM235.5 1017.5q-12.5 -69.5 30.5 -84.5t82 26.5t66.5 114.5t40.5 116q-94 -2 -150.5 -52.5t-69 -120z" />
<glyph unicode="&#xab;" horiz-adv-x="821" d="M195 535q-17 49 16 88l275 315q20 25 63 25h33q22 0 28.5 -12.5t-8.5 -32.5l-280 -369l108 -334q19 -49 -28 -49h-33q-43 0 -60 47zM488 535q-17 49 16 88l275 315q20 25 63 25h33q22 0 28.5 -12.5t-8.5 -32.5l-280 -369l108 -334q19 -49 -28 -49h-33q-43 0 -60 47z" />
<glyph unicode="&#xac;" horiz-adv-x="1720" d="M252 846l6 20q10 37 25.5 47.5t50.5 10.5h1052q82 0 58 -88l-107 -394q-12 -45 -61 -45h-52q-57 0 -45 47l88 328h-976q-60 0 -39 74z" />
<glyph unicode="&#xad;" horiz-adv-x="784" d="M109 641l18 72q6 22 27 22h512q18 0 28.5 -13t6.5 -34l-11 -51q-8 -43 -53 -43h-491q-50 0 -37 47z" />
<glyph unicode="&#xae;" horiz-adv-x="1593" d="M113 474.5q-30 195.5 28 393.5q73 267 282 447t466 177t402.5 -146.5t183.5 -325.5t-19 -430q-80 -289 -277 -447.5t-470 -158.5t-456 182q-110 113 -140 308.5zM278 819q-78 -303 47 -513t397 -210q222 0 377.5 157t218.5 402q39 136 22.5 266t-66.5 233t-151.5 166.5 t-234.5 63.5q-219 0 -383 -160.5t-227 -404.5zM470 334l205 758q-22 -5 -43.5 -9t-33 8.5t-7.5 28.5l17 60q4 18 39 28q116 29 232 10.5t180.5 -79t64.5 -153.5t-45 -169q-66 -112 -170 -147l76 -330q12 -51 -29 -51h-74q-29 0 -39 39l-63 323h-86l-88 -329q-9 -31 -50 -31 h-53q-18 0 -27.5 12t-5.5 31zM720 754l64 2q84 4 119 32q75 60 82 177q4 71 -68 110q-41 23 -105 25z" />
<glyph unicode="&#xaf;" horiz-adv-x="815" d="M100 1616q-2 14 10 43l10 35q8 24 31 24h719q30 0 13 -58t-44 -58h-705q-32 0 -34 14z" />
<glyph unicode="&#xb0;" horiz-adv-x="942" d="M258 1331q0 139 104.5 228.5t220 89.5t180 -66.5t64.5 -169.5q0 -143 -103 -231t-219 -88t-181.5 67.5t-65.5 169.5zM360 1351.5q0 -73.5 43 -117.5t115 -44t139.5 61.5t67.5 139t-41 119.5t-118 42t-140 -63q-66 -64 -66 -137.5z" />
<glyph unicode="&#xb1;" horiz-adv-x="972" d="M3 94l12 68q4 22 21 22h643q37 0 30 -41l-8 -49q-6 -37 -41 -37h-629q-34 0 -28 37zM85 637l16 65q8 31 45 31h248l51 193q12 43 60 43h41q55 0 43 -45l-50 -191h265q16 0 25 -9t5 -24l-14 -61q-6 -33 -43 -33h-272l-58 -221q-12 -43 -59 -43h-41q-55 0 -43 45l57 219 h-250q-32 0 -26 31z" />
<glyph unicode="&#xb2;" horiz-adv-x="604" d="M38.5 690q-16.5 35 22.5 82l401 422q90 98 87 177t-78.5 84t-124 -43t-48.5 -120q0 -12 -13 -22t-27 -13l-56 -8q-22 -2 -28.5 7.5t-6.5 27.5q0 119 89.5 201t211 82t175 -72t29 -181.5t-125.5 -209.5l-317 -322h328q47 0 34 -43l-12 -47q-4 -14 -20.5 -25.5t-32.5 -11.5 h-428q-43 0 -59.5 35z" />
<glyph unicode="&#xb3;" horiz-adv-x="614" d="M104 881q0 41 27 53l59 24q31 11 38.5 2.5t7.5 -34.5q-9 -181 72 -182t119 54.5t46 102.5q31 154 -121 154q-20 0 -30 8q-15 8 -11 27l4 45q7 34 55 33t104 36t71.5 103.5t-10 109.5t-80 43t-97.5 -44t-45 -100t-34 -63l-56 -6q-22 -2 -28.5 8.5t-6.5 32.5q0 115 84 199 t189.5 82t160 -61.5t56.5 -138.5t-41 -147.5t-121 -99.5q96 -26 96 -156t-93 -228.5t-224 -100.5q-96 -2 -143.5 71.5t-47.5 172.5z" />
<glyph unicode="&#xb4;" horiz-adv-x="573" d="M133 1178.5q-4 11.5 2 17.5l127 199q22 35 63 35h92q23 0 28 -13.5t-13 -38.5l-179 -186q-22 -25 -57 -25h-43q-16 0 -20 11.5z" />
<glyph unicode="&#xb5;" horiz-adv-x="854" d="M-118 -344l369 1356q6 28 33 28h106q31 0 16 -49l-206 -710q-15 -64 -5 -82q23 -33 102 85.5t236.5 404.5t176 318.5t51.5 32.5h78q12 0 20 -16t2 -37l-248 -934q-10 -53 -41 -53h-84q-49 0 -32 59l141 478q-225 -404 -304 -470.5t-134 -66.5h-41q-2 -35 -21 -104 l-74 -261q-12 -45 -61 -45h-27q-34 0 -47.5 19.5t-5.5 46.5z" />
<glyph unicode="&#xb6;" horiz-adv-x="1384" d="M244 1065q5 168 158.5 293t399.5 125h668q47 0 34 -49l-12 -56q-8 -41 -57 -41h-152l-432 -1702q-12 -45 -61 -45h-49q-33 0 -46.5 18.5t-7.5 47.5l428 1681h-217l-432 -1702q-12 -45 -61 -45h-50q-32 0 -45.5 18.5t-7.5 47.5l271 1061q-146 6 -240 93t-89 255z" />
<glyph unicode="&#xb7;" horiz-adv-x="434" d="M178 696q0 47 34 81t83 34h22q39 0 73 -36t34 -82t-35 -79.5t-86 -33.5h-20q-41 0 -73 34.5t-32 81.5z" />
<glyph unicode="&#xb8;" horiz-adv-x="604" d="M120 -324q-8 39 27 41q82 7 130 53t48 117q0 27 19.5 34t31.5 -1l60 -16q34 -10 22 -62q-49 -207 -295 -217q-31 0 -37 27z" />
<glyph unicode="&#xb9;" horiz-adv-x="389" d="M108 1291.5q-4 21.5 19 41.5l184 156q39 35 62.5 53.5t45.5 18.5h82q37 2 23 -39l-248 -836q-8 -31 -37 -31h-78q-37 0 -24 41l207 688l-91 -86q-28 -28 -55 -28h-61q-25 0 -29 21.5z" />
<glyph unicode="&#xba;" horiz-adv-x="665" d="M143 1129.5q0 150.5 99.5 294t269.5 143.5q106 0 160.5 -75t54.5 -177.5t-39 -206.5t-125 -182t-190.5 -78t-167 65.5t-62.5 216zM291 1104q0 -133 86 -133q98 0 150.5 106.5t54.5 237.5t-92.5 130t-146.5 -104.5t-52 -236.5z" />
<glyph unicode="&#xbb;" horiz-adv-x="735" d="M60 211l281 369l-109 333q-18 50 29 50h33q43 0 59 -48l115 -321q16 -49 -16 -88l-275 -316q-20 -24 -63 -24h-33q-49 0 -21 45zM361 211l281 369l-109 333q-18 50 29 50h33q43 0 59 -48l115 -321q16 -49 -16 -88l-275 -316q-20 -24 -63 -24h-33q-49 0 -21 45z" />
<glyph unicode="&#xbc;" horiz-adv-x="1871" d="M42.5 -32.5q-6.5 20.5 18.5 46.5l1497 1504q47 47 98 47h80q29 0 35 -20.5t-18 -47.5l-1512 -1515q-37 -37 -86 -37l-82 2q-24 0 -30.5 20.5zM245 1256.5q-4 21.5 19 41.5l184 156q39 35 62.5 53.5t45.5 18.5h82q37 2 23 -39l-248 -836q-8 -31 -37 -31h-78q-37 0 -24 41 l207 688l-91 -86q-28 -28 -55 -28h-61q-25 0 -29 21.5zM990.5 244q-18.5 45 22.5 90l424 545q26 29 55 29h53q21 0 30 -18.5t-5 -37.5l-430 -538h209l55 192q10 29 47 29h55q19 0 27 -12.5t4 -28.5l-53 -180h65q23 2 32 -8.5t3 -30.5l-16 -39q-17 -37 -53 -37h-64l-49 -168 q-10 -29 -47 -29h-55q-19 0 -27 12.5t-4 28.5l45 156h-234q-71 0 -89.5 45z" />
<glyph unicode="&#xbd;" horiz-adv-x="1892" d="M42.5 -32.5q-6.5 20.5 18.5 46.5l1497 1504q47 47 98 47h80q29 0 35 -20.5t-18 -47.5l-1512 -1515q-37 -37 -86 -37l-82 2q-24 0 -30.5 20.5zM245 1256.5q-4 21.5 19 41.5l184 156q39 35 62.5 53.5t45.5 18.5h82q37 2 23 -39l-248 -836q-8 -31 -37 -31h-78q-37 0 -24 41 l207 688l-91 -86q-28 -28 -55 -28h-61q-25 0 -29 21.5zM1072.5 37q-16.5 35 22.5 82l401 422q90 98 87 177t-78.5 84t-124 -43t-48.5 -120q0 -12 -13 -22t-27 -13l-56 -8q-22 -2 -28.5 7.5t-6.5 27.5q0 119 89.5 201t211 82t175 -72t29 -181.5t-125.5 -209.5l-317 -322h328 q47 0 34 -43l-12 -47q-4 -14 -20.5 -25.5t-32.5 -11.5h-428q-43 0 -59.5 35z" />
<glyph unicode="&#xbe;" horiz-adv-x="1853" d="M42.5 -32.5q-6.5 20.5 18.5 46.5l1497 1504q47 47 98 47h80q29 0 35 -20.5t-18 -47.5l-1512 -1515q-37 -37 -86 -37l-82 2q-24 0 -30.5 20.5zM135 846q0 41 27 53l59 24q31 11 38.5 2.5t7.5 -34.5q-9 -181 72 -182t119 54.5t46 102.5q31 154 -121 154q-20 0 -30 8 q-15 8 -11 27l4 45q7 34 55 33t104 36t71.5 103.5t-10 109.5t-80 43t-97.5 -44t-45 -100t-34 -63l-56 -6q-22 -2 -28.5 8.5t-6.5 32.5q0 115 84 199t189.5 82t160 -61.5t56.5 -138.5t-41 -147.5t-121 -99.5q96 -26 96 -156t-93 -228.5t-224 -100.5q-96 -2 -143.5 71.5 t-47.5 172.5zM1005.5 244q-18.5 45 22.5 90l424 545q26 29 55 29h53q21 0 30 -18.5t-5 -37.5l-430 -538h209l55 192q10 29 47 29h55q19 0 27 -12.5t4 -28.5l-53 -180h65q23 2 32 -8.5t3 -30.5l-16 -39q-17 -37 -53 -37h-64l-49 -168q-10 -29 -47 -29h-55q-19 0 -27 12.5 t-4 28.5l45 156h-234q-71 0 -89.5 45z" />
<glyph unicode="&#xbf;" horiz-adv-x="677" d="M8 334q11 164 66.5 303t116 184t234.5 56q24 32 40.5 116t16.5 121q0 47 62 41l47 -6q45 -8 44 -76.5t-42 -167t-91.5 -139.5t-126 -43t-105.5 -27.5t-54.5 -95.5t-44 -195.5t-15 -175t26 -73t53.5 -29.5q21 4 64 47t69.5 72.5t65.5 3.5l39 -25q35 -24 8 -61 q-51 -64 -117.5 -120t-112.5 -65.5t-121 25.5t-104.5 100.5t-18.5 229.5zM466 1369q0 46 34.5 80t86.5 34h20q41 0 72.5 -35t31.5 -82t-33.5 -81t-82.5 -34h-23q-39 0 -72.5 36t-33.5 82z" />
<glyph unicode="&#xc0;" horiz-adv-x="942" d="M-117 30.5q-11 24.5 3 51.5l682 1315q43 82 113 82l82 2q81 0 75 -99l-71 -1337q-4 -43 -62 -45l-69 2q-52 0 -48 55l27 387h-364l-199 -403q-23 -47 -76 -41l-47 4q-35 2 -46 26.5zM322 592h301l49 711zM447 1834.5q5 11.5 22 11.5h108q41 0 64 -35l116 -189 q11 -16 1.5 -27.5t-27.5 -11.5h-33q-31 0 -59 29l-183 190q-14 21 -9 32.5z" />
<glyph unicode="&#xc1;" horiz-adv-x="944" d="M-117 30.5q-11 24.5 3 51.5l682 1315q43 82 113 82l82 2q81 0 75 -99l-71 -1337q-4 -43 -62 -45l-69 2q-52 0 -48 55l27 387h-364l-199 -403q-23 -47 -76 -41l-47 4q-35 2 -46 26.5zM322 592h301l49 711zM686 1594.5q-4 11.5 2 17.5l127 199q22 35 63 35h92 q23 0 28 -13.5t-13 -38.5l-179 -186q-22 -25 -57 -25h-43q-16 0 -20 11.5z" />
<glyph unicode="&#xc2;" horiz-adv-x="935" d="M-117 30.5q-11 24.5 3 51.5l682 1315q43 82 113 82l82 2q81 0 75 -99l-71 -1337q-4 -43 -62 -45l-69 2q-52 0 -48 55l27 387h-364l-199 -403q-23 -47 -76 -41l-47 4q-35 2 -46 26.5zM322 592h301l49 711zM495 1617q-4 15 15 32l207 186q34 31 51 29l18 -2q21 -2 41 -37 l109 -189q10 -14 4 -24t-25 -10h-59q-33 0 -43 22l-55 131l-129 -131q-23 -22 -58 -22h-49q-23 0 -27 15z" />
<glyph unicode="&#xc3;" horiz-adv-x="942" d="M-117 30.5q-11 24.5 3 51.5l682 1315q43 82 113 82l82 2q81 0 75 -99l-71 -1337q-4 -43 -62 -45l-69 2q-52 0 -48 55l27 387h-364l-199 -403q-23 -47 -76 -41l-47 4q-35 2 -46 26.5zM322 592h301l49 711zM414 1682l12 39q10 43 66 51q133 24 245.5 -19t261.5 0 q29 9 43.5 -1.5t6.5 -39.5l-13 -49q-10 -41 -53 -53q-133 -39 -272.5 8t-253.5 10q-31 -10 -42.5 2.5t-0.5 51.5z" />
<glyph unicode="&#xc4;" horiz-adv-x="935" d="M-117 30.5q-11 24.5 3 51.5l682 1315q43 82 113 82l82 2q81 0 75 -99l-71 -1337q-4 -43 -62 -45l-69 2q-52 0 -48 55l27 387h-364l-199 -403q-23 -47 -76 -41l-47 4q-35 2 -46 26.5zM322 592h301l49 711zM465 1764q0 40 28.5 70t71.5 30h19q35 0 63.5 -31t28.5 -71 t-29.5 -68.5t-75.5 -28.5h-16q-35 0 -62.5 29.5t-27.5 69.5zM793 1764q0 40 28.5 70t71.5 30h18q35 0 64 -31t29 -71t-30 -68.5t-75 -28.5h-16q-35 0 -62.5 29.5t-27.5 69.5z" />
<glyph unicode="&#xc5;" horiz-adv-x="948" d="M-115 28.5q-13 20.5 3 53.5l596 1151q-68 78 -51.5 211t100.5 209t204 71.5t188.5 -80t47 -220t-144.5 -228.5l-59 -1151q-2 -45 -62 -45l-69 2q-52 0 -48 55l27 387h-364l-199 -403q-23 -47 -76 -41l-47 4q-33 4 -46 24.5zM324 592h301l39 565q-31 2 -57 8zM574 1470.5 q-14 -71.5 4.5 -125t77.5 -65.5t106.5 28t68 107.5t-2 124.5t-78 70.5t-104.5 -23.5q-58 -45 -72 -116.5z" />
<glyph unicode="&#xc6;" horiz-adv-x="1335" d="M-189.5 30.5q-8.5 24.5 5.5 45.5l871 1321q59 86 121 86h649q29 0 38 -11.5t1 -39.5l-15 -52q-10 -39 -51 -39h-512l-80 -467h412q16 0 25.5 -13t3.5 -34l-15 -51q-12 -43 -61 -43h-389l-101 -592h381q19 0 26 -14t3 -33l-14 -51q-10 -43 -66 -43h-461q-53 0 -47 55 l68 389h-363l-254 -405q-16 -25 -27 -33t-40 -6l-72 4q-28 2 -36.5 26.5zM335 592h295l116 655z" />
<glyph unicode="&#xc7;" horiz-adv-x="868" d="M27.5 331q-19.5 216 50 498.5t231.5 475t344 194.5q25 0 68 -14.5t78.5 -41t70.5 -115.5t43 -204q2 -14 2 -26q0 -29 -43 -41l-57 -17q-23 -4 -43.5 12.5t-22.5 43.5q-16 157 -69 223q-27 10 -60 10q-100 4 -201.5 -141.5t-176 -413.5t-49 -445t103.5 -196 q153 14 254 236q18 41 32.5 49t49.5 -6l65 -27q37 -16 6 -82q-94 -174 -186 -246.5t-227 -72.5q-72 -4 -158 63.5t-105.5 283.5zM231 -324q-8 39 27 41q82 7 130 53t48 117q0 27 19.5 34t31.5 -1l60 -16q34 -10 22 -62q-49 -207 -295 -217q-31 0 -37 27z" />
<glyph unicode="&#xc8;" horiz-adv-x="927" d="M287 1864.5q5 11.5 22 11.5h108q41 0 64 -35l116 -189q11 -16 1.5 -27.5t-27.5 -11.5h-33q-31 0 -59 29l-183 190q-14 21 -9 32.5z" />
<glyph unicode="&#xc9;" horiz-adv-x="927" d="M582 1624.5q-4 11.5 2 17.5l127 199q22 35 63 35h92q23 0 28 -13.5t-13 -38.5l-179 -186q-22 -25 -57 -25h-43q-16 0 -20 11.5z" />
<glyph unicode="&#xca;" horiz-adv-x="927" d="M427 1680q-4 15 15 32l207 186q34 31 51 29l18 -2q21 -2 41 -37l109 -189q10 -14 4 -24t-25 -10h-59q-33 0 -43 22l-55 131l-129 -131q-23 -22 -58 -22h-49q-23 0 -27 15z" />
<glyph unicode="&#xcb;" horiz-adv-x="927" d="M352 1778q0 40 28.5 70t71.5 30h19q35 0 63.5 -31t28.5 -71t-29.5 -68.5t-75.5 -28.5h-16q-35 0 -62.5 29.5t-27.5 69.5zM680 1778q0 40 28.5 70t71.5 30h18q35 0 64 -31t29 -71t-30 -68.5t-75 -28.5h-16q-35 0 -62.5 29.5t-27.5 69.5z" />
<glyph unicode="&#xcc;" horiz-adv-x="481" d="M4 63l350 1375q13 45 62 45h59q25 0 36 -18.5t5 -45.5l-350 -1374q-12 -45 -62 -45h-59q-24 0 -35.5 18.5t-5.5 44.5zM165 1864.5q5 11.5 21 11.5h109q41 0 63 -35l117 -188q10 -17 1 -28t-27 -11h-33q-31 0 -60 28l-182 191q-14 20 -9 31.5z" />
<glyph unicode="&#xcd;" horiz-adv-x="440" d="M-23 63l351 1375q12 45 61 45h60q24 0 35.5 -18.5t4.5 -45.5l-350 -1374q-12 -45 -61 -45h-60q-24 0 -35.5 18.5t-5.5 44.5zM391 1625q-4 11 2 17l127 199q23 35 64 35h92q22 0 27.5 -13.5t-13.5 -37.5l-178 -187q-23 -24 -57 -24h-43q-17 0 -21 11z" />
<glyph unicode="&#xce;" horiz-adv-x="454" d="M-23 63l351 1375q12 45 61 45h60q24 0 35.5 -18.5t4.5 -45.5l-350 -1374q-12 -45 -61 -45h-60q-24 0 -35.5 18.5t-5.5 44.5zM192.5 1617q-4.5 15 14.5 32l207 186q35 31 51 29l18 -2q21 -2 41 -37l109 -189q10 -14 4 -24t-25 -10h-59q-33 0 -43 22l-55 131l-129 -131 q-23 -22 -58 -22h-49q-22 0 -26.5 15z" />
<glyph unicode="&#xcf;" horiz-adv-x="454" d="M-23 63l351 1375q12 45 61 45h60q24 0 35.5 -18.5t4.5 -45.5l-350 -1374q-12 -45 -61 -45h-60q-24 0 -35.5 18.5t-5.5 44.5zM199 1762q0 40 28.5 70t71.5 30h18q35 0 64 -31t29 -71t-30 -68.5t-75 -28.5h-16q-35 0 -62.5 29.5t-27.5 69.5zM471 1762q0 40 28.5 70t71.5 30 h19q35 0 63.5 -31t28.5 -71t-29.5 -68.5t-74.5 -28.5h-17q-35 0 -62.5 29.5t-27.5 69.5z" />
<glyph unicode="&#xd0;" horiz-adv-x="946" d="M109 641l18 72q6 22 27 22h655q45 0 35 -47l-10 -51q-11 -43 -54 -43h-634q-50 0 -37 47z" />
<glyph unicode="&#xd1;" horiz-adv-x="1218" d="M522 1682l12 39q10 43 66 51q133 24 245.5 -19t261.5 0q29 9 43.5 -1.5t6.5 -39.5l-13 -49q-10 -41 -53 -53q-133 -39 -272.5 8t-253.5 10q-31 -10 -42.5 2.5t-0.5 51.5z" />
<glyph unicode="&#xd2;" horiz-adv-x="913" d="M14 444q0 187 55.5 372t134.5 331.5t195.5 249t241.5 102.5q86 0 178 -57q64 -39 88.5 -123t24.5 -248t-72 -436q-65 -252 -192 -438q-68 -97 -161 -151t-180 -56t-167 41q-146 75 -146 413zM183 442.5q-1 -155.5 36 -234.5t96 -79q109 0 191 107q100 139 192 438 q84 287 62.5 472t-127.5 185q-113 0 -201 -114q-108 -144 -190 -429q-58 -190 -59 -345.5zM430 1864.5q5 11.5 22 11.5h108q41 0 64 -35l116 -189q11 -16 1.5 -27.5t-27.5 -11.5h-33q-31 0 -59 29l-183 190q-14 21 -9 32.5z" />
<glyph unicode="&#xd3;" horiz-adv-x="913" d="M14 444q0 187 55.5 372t134.5 331.5t195.5 249t241.5 102.5q86 0 178 -57q64 -39 88.5 -123t24.5 -248t-72 -436q-65 -252 -192 -438q-68 -97 -161 -151t-180 -56t-167 41q-146 75 -146 413zM183 442.5q-1 -155.5 36 -234.5t96 -79q109 0 191 107q100 139 192 438 q84 287 62.5 472t-127.5 185q-113 0 -201 -114q-108 -144 -190 -429q-58 -190 -59 -345.5zM674 1624.5q-4 11.5 2 17.5l127 199q22 35 63 35h92q23 0 28 -13.5t-13 -38.5l-179 -186q-22 -25 -57 -25h-43q-16 0 -20 11.5z" />
<glyph unicode="&#xd4;" horiz-adv-x="915" d="M14 444q0 187 55.5 372t134.5 331.5t195.5 249t241.5 102.5q86 0 178 -57q64 -39 88.5 -123t24.5 -248t-72 -436q-65 -252 -192 -438q-68 -97 -161 -151t-180 -56t-167 41q-146 75 -146 413zM183 442.5q-1 -155.5 36 -234.5t96 -79q109 0 191 107q100 139 192 438 q84 287 62.5 472t-127.5 185q-113 0 -201 -114q-108 -144 -190 -429q-58 -190 -59 -345.5zM460 1617q-4 15 15 32l207 186q34 31 51 29l18 -2q21 -2 41 -37l109 -189q10 -14 4 -24t-25 -10h-59q-33 0 -43 22l-55 131l-129 -131q-23 -22 -58 -22h-49q-23 0 -27 15z" />
<glyph unicode="&#xd5;" horiz-adv-x="913" d="M14 444q0 187 55.5 372t134.5 331.5t195.5 249t241.5 102.5q86 0 178 -57q64 -39 88.5 -123t24.5 -248t-72 -436q-65 -252 -192 -438q-68 -97 -161 -151t-180 -56t-167 41q-146 75 -146 413zM183 442.5q-1 -155.5 36 -234.5t96 -79q109 0 191 107q100 139 192 438 q84 287 62.5 472t-127.5 185q-113 0 -201 -114q-108 -144 -190 -429q-58 -190 -59 -345.5zM362 1682l12 39q10 43 66 51q133 24 245.5 -19t261.5 0q29 9 43.5 -1.5t6.5 -39.5l-13 -49q-10 -41 -53 -53q-133 -39 -272.5 8t-253.5 10q-31 -10 -42.5 2.5t-0.5 51.5z" />
<glyph unicode="&#xd6;" horiz-adv-x="915" d="M14 444q0 187 55.5 372t134.5 331.5t195.5 249t241.5 102.5q86 0 178 -57q64 -39 88.5 -123t24.5 -248t-72 -436q-65 -252 -192 -438q-68 -97 -161 -151t-180 -56t-167 41q-146 75 -146 413zM183 442.5q-1 -155.5 36 -234.5t96 -79q109 0 191 107q100 139 192 438 q84 287 62.5 472t-127.5 185q-113 0 -201 -114q-108 -144 -190 -429q-58 -190 -59 -345.5zM406 1764q0 40 28.5 70t71.5 30h19q35 0 63.5 -31t28.5 -71t-29.5 -68.5t-75.5 -28.5h-16q-35 0 -62.5 29.5t-27.5 69.5zM734 1764q0 40 28.5 70t71.5 30h18q35 0 64 -31t29 -71 t-30 -68.5t-75 -28.5h-16q-35 0 -62.5 29.5t-27.5 69.5z" />
<glyph unicode="&#xd7;" horiz-adv-x="874" d="M-41 127q-5 16 17 49l365 463l-172 479q-27 68 12 90l55 35q58 31 84 -53l142 -422l311 428q33 49 70 27l41 -25q34 -20 36 -39.5t-20 -46.5l-387 -494l178 -479q10 -28 0 -43.5t-43 -34.5l-25 -12q-75 -43 -102 45l-121 383l-284 -393q-31 -49 -70 -25l-51 33 q-31 19 -36 35z" />
<glyph unicode="&#xd8;" horiz-adv-x="921" d="M-106.5 121.5q-1.5 15.5 25.5 50.5l111 135q-6 62 -6 137q0 187 55 372t134 331.5t195.5 249t241.5 102.5q86 0 152.5 -42t93.5 -87l80 98q20 23 32.5 27t43.5 -10l30 -21q54 -34 25 -69l-170 -207q4 -51 4 -117q0 -182 -68.5 -435t-195.5 -439q-68 -97 -161 -151 t-180 -56t-153.5 34.5t-111.5 116.5l-43 -53q-45 -53 -70 -33l-41 33q-22 18 -23.5 33.5zM194 510l565 694q-29 127 -117 127q-113 0 -201 -114q-108 -144 -190 -429q-45 -149 -57 -278zM202 299q22 -170 129 -170q102 0 200 127q84 119 156 340t84 391z" />
<glyph unicode="&#xd9;" horiz-adv-x="1013" d="M92 571l221 867q13 45 62 45h59q25 0 36 -18.5t5 -45.5l-231 -913q-98 -387 139 -387q98 0 175 82t126 282l244 955q12 45 61 45h52q24 0 34.5 -18.5t3.5 -45.5l-239 -950q-66 -264 -187 -371q-49 -47 -124.5 -79.5t-176.5 -32.5q-139 2 -211 73q-143 150 -49 512z M422 1864.5q5 11.5 22 11.5h108q41 0 64 -35l116 -189q11 -16 1.5 -27.5t-27.5 -11.5h-33q-31 0 -59 29l-183 190q-14 21 -9 32.5z" />
<glyph unicode="&#xda;" horiz-adv-x="1013" d="M92 571l221 867q13 45 62 45h59q25 0 36 -18.5t5 -45.5l-231 -913q-98 -387 139 -387q98 0 175 82t126 282l244 955q12 45 61 45h52q24 0 34.5 -18.5t3.5 -45.5l-239 -950q-66 -264 -187 -371q-49 -47 -124.5 -79.5t-176.5 -32.5q-139 2 -211 73q-143 150 -49 512z M641 1624.5q-4 11.5 2 17.5l127 199q22 35 63 35h92q23 0 28 -13.5t-13 -38.5l-179 -186q-22 -25 -57 -25h-43q-16 0 -20 11.5z" />
<glyph unicode="&#xdb;" horiz-adv-x="1013" d="M92 571l221 867q13 45 62 45h59q25 0 36 -18.5t5 -45.5l-231 -913q-98 -387 139 -387q98 0 175 82t126 282l244 955q12 45 61 45h52q24 0 34.5 -18.5t3.5 -45.5l-239 -950q-66 -264 -187 -371q-49 -47 -124.5 -79.5t-176.5 -32.5q-139 2 -211 73q-143 150 -49 512z M491 1617q-4 15 15 32l207 186q34 31 51 29l18 -2q21 -2 41 -37l109 -189q10 -14 4 -24t-25 -10h-59q-33 0 -43 22l-55 131l-129 -131q-23 -22 -58 -22h-49q-23 0 -27 15z" />
<glyph unicode="&#xdc;" horiz-adv-x="1013" d="M92 571l221 867q13 45 62 45h59q25 0 36 -18.5t5 -45.5l-231 -913q-98 -387 139 -387q98 0 175 82t126 282l244 955q12 45 61 45h52q24 0 34.5 -18.5t3.5 -45.5l-239 -950q-66 -264 -187 -371q-49 -47 -124.5 -79.5t-176.5 -32.5q-139 2 -211 73q-143 150 -49 512z M457 1764q0 40 28.5 70t71.5 30h19q35 0 63.5 -31t28.5 -71t-29.5 -68.5t-75.5 -28.5h-16q-35 0 -62.5 29.5t-27.5 69.5zM785 1764q0 40 28.5 70t71.5 30h18q35 0 64 -31t29 -71t-30 -68.5t-75 -28.5h-16q-35 0 -62.5 29.5t-27.5 69.5z" />
<glyph unicode="&#xdd;" horiz-adv-x="819" d="M155 63l143 566q0 135 -31.5 384t-64.5 378q-13 36 0.5 62t44.5 28l57 8q29 2 41 -7t19 -42q63 -381 63 -672q191 285 269.5 421t140.5 267q14 31 61 27l64 -8q22 -2 31.5 -21.5t-7.5 -52.5q-235 -412 -530 -805l-140 -551q-12 -45 -61 -45h-59q-25 0 -36 18.5t-5 44.5z M539 1624.5q-4 11.5 2 17.5l127 199q22 35 63 35h92q23 0 28 -13.5t-13 -38.5l-179 -186q-22 -25 -57 -25h-43q-16 0 -20 11.5z" />
<glyph unicode="&#xde;" horiz-adv-x="915" d="M-15 63l350 1375q12 45 61 45h60q24 0 35.5 -18.5t5.5 -45.5l-21 -78h111q166 0 254 -72.5t83 -215t-51.5 -267t-117.5 -188.5q-150 -133 -500 -127l-109 -426q-12 -45 -61 -45h-59q-25 0 -36.5 18.5t-4.5 44.5zM290 610l160 8q163 9 225 123q31 52 56.5 148t25.5 182 q0 121 -140 127q-61 2 -176 4z" />
<glyph unicode="&#xdf;" horiz-adv-x="931" d="M-43 47l287 1079q49 187 154.5 300.5t267.5 113.5q122 0 200 -88t69 -222t-118 -251q-96 -96 -113 -117q-49 -65 -49 -115.5t33 -89.5t73 -71.5t72.5 -94t32.5 -137.5q0 -159 -90 -273t-248 -114q-63 0 -109 29t-67 76q-39 86 -39 158.5t29 80.5l55 17q62 20 60 -21 q-9 -209 98 -209q63 0 109.5 67.5t47.5 144.5t-21.5 118t-55.5 70.5t-66 58.5q-80 66 -76 150q0 106 68 194q64 86 131 154q72 80 84 165t-24.5 137t-106.5 52t-139.5 -78t-106.5 -213l-286 -1073q-13 -45 -60 -45h-51q-25 0 -37 13.5t-8 33.5z" />
<glyph unicode="&#xe0;" horiz-adv-x="770" d="M17.5 162q-14.5 45 2 163.5t93.5 331.5t158 297t203 82q68 0 130 -37q8 48 47 48l47 2q75 -2 55 -74l-246 -819q64 47 127 135q23 33 51 14l50 -33q32 -22 10 -51q-84 -98 -154.5 -152.5t-167.5 -76.5q-28 -4 -37 22l-38 113q-58 -76 -99 -104.5t-63 -28.5h-4 q-17 0 -50.5 23.5t-66.5 61.5t-47.5 83zM160 227q3 -37 36 -54t109.5 67t134 230t133.5 415q-109 61 -177.5 2.5t-134 -238.5t-85 -282.5t-16.5 -139.5zM346 1408.5q5 11.5 22 11.5h108q41 0 64 -35l116 -189q11 -16 1.5 -27.5t-27.5 -11.5h-33q-31 0 -59 29l-183 190 q-14 21 -9 32.5z" />
<glyph unicode="&#xe1;" horiz-adv-x="770" d="M17.5 162q-14.5 45 2 163.5t93.5 331.5t158 297t203 82q68 0 130 -37q8 48 47 48l47 2q75 -2 55 -74l-246 -819q64 47 127 135q23 33 51 14l50 -33q32 -22 10 -51q-84 -98 -154.5 -152.5t-167.5 -76.5q-28 -4 -37 22l-38 113q-58 -76 -99 -104.5t-63 -28.5h-4 q-17 0 -50.5 23.5t-66.5 61.5t-47.5 83zM160 227q3 -37 36 -54t109.5 67t134 230t133.5 415q-109 61 -177.5 2.5t-134 -238.5t-85 -282.5t-16.5 -139.5zM489 1168.5q-4 11.5 2 17.5l127 199q22 35 63 35h92q23 0 28 -13.5t-13 -38.5l-179 -186q-22 -25 -57 -25h-43 q-16 0 -20 11.5z" />
<glyph unicode="&#xe2;" horiz-adv-x="788" d="M17.5 162q-14.5 45 2 163.5t93.5 331.5t158 297t203 82q68 0 130 -37q8 48 47 48l47 2q75 -2 55 -74l-246 -819q64 47 127 135q23 33 51 14l50 -33q32 -22 10 -51q-84 -98 -154.5 -152.5t-167.5 -76.5q-28 -4 -37 22l-38 113q-58 -76 -99 -104.5t-63 -28.5h-4 q-17 0 -50.5 23.5t-66.5 61.5t-47.5 83zM160 227q3 -37 36 -54t109.5 67t134 230t133.5 415q-109 61 -177.5 2.5t-134 -238.5t-85 -282.5t-16.5 -139.5zM286 1150q-4 15 15 32l207 186q34 31 51 29l18 -2q21 -2 41 -37l109 -189q10 -14 4 -24t-25 -10h-59q-33 0 -43 22 l-55 131l-129 -131q-23 -22 -58 -22h-49q-23 0 -27 15z" />
<glyph unicode="&#xe3;" horiz-adv-x="790" d="M17.5 162q-14.5 45 2 163.5t93.5 331.5t158 297t203 82q68 0 130 -37q8 48 47 48l47 2q75 -2 55 -74l-246 -819q64 47 127 135q23 33 51 14l50 -33q32 -22 10 -51q-84 -98 -154.5 -152.5t-167.5 -76.5q-28 -4 -37 22l-38 113q-58 -76 -99 -104.5t-63 -28.5h-4 q-17 0 -50.5 23.5t-66.5 61.5t-47.5 83zM160 227q3 -37 36 -54t109.5 67t134 230t133.5 415q-109 61 -177.5 2.5t-134 -238.5t-85 -282.5t-16.5 -139.5zM207 1252l12 39q10 43 66 51q133 24 245.5 -19t261.5 0q29 9 43.5 -1.5t6.5 -39.5l-13 -49q-10 -41 -53 -53 q-133 -39 -272.5 8t-253.5 10q-31 -10 -42.5 2.5t-0.5 51.5z" />
<glyph unicode="&#xe4;" horiz-adv-x="770" d="M17.5 162q-14.5 45 2 163.5t93.5 331.5t158 297t203 82q68 0 130 -37q8 48 47 48l47 2q75 -2 55 -74l-246 -819q64 47 127 135q23 33 51 14l50 -33q32 -22 10 -51q-84 -98 -154.5 -152.5t-167.5 -76.5q-28 -4 -37 22l-38 113q-58 -76 -99 -104.5t-63 -28.5h-4 q-17 0 -50.5 23.5t-66.5 61.5t-47.5 83zM160 227q3 -37 36 -54t109.5 67t134 230t133.5 415q-109 61 -177.5 2.5t-134 -238.5t-85 -282.5t-16.5 -139.5zM250 1289q0 40 28.5 70t71.5 30h19q35 0 63.5 -31t28.5 -71t-29.5 -68.5t-75.5 -28.5h-16q-35 0 -62.5 29.5t-27.5 69.5 zM578 1289q0 40 28.5 70t71.5 30h18q35 0 64 -31t29 -71t-30 -68.5t-75 -28.5h-16q-35 0 -62.5 29.5t-27.5 69.5z" />
<glyph unicode="&#xe5;" horiz-adv-x="796" d="M17.5 162q-14.5 45 2 163.5t93.5 331.5t158 297t203 82q68 0 130 -37q8 48 47 48l47 2q75 -2 55 -74l-246 -819q64 47 127 135q23 33 51 14l50 -33q32 -22 10 -51q-84 -98 -154.5 -152.5t-167.5 -76.5q-28 -4 -37 22l-38 113q-58 -76 -99 -104.5t-63 -28.5h-4 q-17 0 -50.5 23.5t-66.5 61.5t-47.5 83zM160 227q3 -37 36 -54t109.5 67t134 230t133.5 415q-109 61 -177.5 2.5t-134 -238.5t-85 -282.5t-16.5 -139.5zM319.5 1429.5q17.5 110.5 96.5 185t188.5 74.5t178 -79.5t54.5 -184.5q-20 -143 -107.5 -211.5t-196 -62.5t-170 87 t-44 191.5zM450 1424q-10 -73 12.5 -113.5t72.5 -52t98 22.5t69.5 102.5t-1 124.5t-75.5 70.5t-104 -26.5q-62 -55 -72 -128z" />
<glyph unicode="&#xe6;" horiz-adv-x="1034" d="M-31 210q-4 142 147.5 297t352.5 206q2 8 4 18q27 125 -41 178q-26 -6 -92 -69.5t-90 -100.5q-17 -20 -41 -4l-47 29q-31 20 -19 45q35 70 144.5 159t159 80.5t95.5 -54.5t64 -103q70 100 172.5 129t179 -6t81.5 -160t-41 -214t-155.5 -188.5t-305.5 -172.5 q-15 -76 5.5 -115t57.5 -47q76 28 186 153q19 19 41 4l39 -24q31 -21 19 -45q-39 -74 -151.5 -165t-207 -50t-120.5 125q-60 -90 -145 -126t-186.5 21.5t-105.5 199.5zM130 228.5q-5 -115.5 78 -114.5t135 131t99 341q-104 -35 -205.5 -138.5t-106.5 -219zM561 412 q98 41 168 96t116 136t46 164t-49 83t-102.5 -47t-99.5 -161t-79 -271z" />
<glyph unicode="&#xe7;" horiz-adv-x="622" d="M-54 -306q-8 39 27 41q82 7 130 53t48 117q0 27 19.5 34t31.5 -1l60 -16q34 -10 22 -62q-49 -207 -295 -217q-31 0 -37 27zM16 453.5q55 230.5 135 352.5t157 185.5t166 55t189 -120.5q33 -35 8 -64l-34 -39q-35 -39 -62 -10l-22 25q-74 75 -117 65q-74 -14 -156 -157.5 t-117.5 -296t-17.5 -254.5q4 -25 38 -45.5t52 -16.5q62 33 137 123q23 31 66 4l31 -20q65 -39 -111 -181q-74 -63 -115 -74.5t-123.5 30.5t-101.5 83q-57 125 -2 355.5z" />
<glyph unicode="&#xe8;" horiz-adv-x="638" d="M7 129q-29 154 51 423t223 406q50 46 124.5 68.5t157.5 -12.5t82 -200t-144.5 -311.5t-350.5 -219.5q-28 -150 56 -166q75 28 186 153q19 17 41 4l39 -24q27 -21 18 -45q-39 -74 -144 -157t-169 -71q-145 37 -170 152zM175 416q96 41 164.5 96t113 134t44.5 162t-48 83 q-94 0 -164.5 -153.5t-109.5 -321.5zM244 1408.5q5 11.5 22 11.5h108q41 0 64 -35l116 -189q11 -16 1.5 -27.5t-27.5 -11.5h-33q-31 0 -59 29l-183 190q-14 21 -9 32.5z" />
<glyph unicode="&#xe9;" horiz-adv-x="636" d="M7 129q-29 154 51 423t223 406q50 46 124.5 68.5t157.5 -12.5t82 -200t-144.5 -311.5t-350.5 -219.5q-28 -150 56 -166q75 28 186 153q19 17 41 4l39 -24q27 -21 18 -45q-39 -74 -144 -157t-169 -71q-145 37 -170 152zM175 416q96 41 164.5 96t113 134t44.5 162t-48 83 q-94 0 -164.5 -153.5t-109.5 -321.5zM463 1168.5q-4 11.5 2 17.5l127 199q22 35 63 35h92q23 0 28 -13.5t-13 -38.5l-179 -186q-22 -25 -57 -25h-43q-16 0 -20 11.5z" />
<glyph unicode="&#xea;" horiz-adv-x="636" d="M7 129q-29 154 51 423t223 406q50 46 124.5 68.5t157.5 -12.5t82 -200t-144.5 -311.5t-350.5 -219.5q-28 -150 56 -166q75 28 186 153q19 17 41 4l39 -24q27 -21 18 -45q-39 -74 -144 -157t-169 -71q-145 37 -170 152zM175 416q96 41 164.5 96t113 134t44.5 162t-48 83 q-94 0 -164.5 -153.5t-109.5 -321.5zM268 1150q-4 15 15 32l207 186q34 31 51 29l18 -2q21 -2 41 -37l109 -189q10 -14 4 -24t-25 -10h-59q-33 0 -43 22l-55 131l-129 -131q-23 -22 -58 -22h-49q-23 0 -27 15z" />
<glyph unicode="&#xeb;" horiz-adv-x="636" d="M7 129q-29 154 51 423t223 406q50 46 124.5 68.5t157.5 -12.5t82 -200t-144.5 -311.5t-350.5 -219.5q-28 -150 56 -166q75 28 186 153q19 17 41 4l39 -24q27 -21 18 -45q-39 -74 -144 -157t-169 -71q-145 37 -170 152zM175 416q96 41 164.5 96t113 134t44.5 162t-48 83 q-94 0 -164.5 -153.5t-109.5 -321.5zM262 1289q0 40 28.5 70t71.5 30h19q35 0 63.5 -31t28.5 -71t-29.5 -68.5t-75.5 -28.5h-16q-35 0 -62.5 29.5t-27.5 69.5zM590 1289q0 40 28.5 70t71.5 30h18q35 0 64 -31t29 -71t-30 -68.5t-75 -28.5h-16q-35 0 -62.5 29.5t-27.5 69.5z " />
<glyph unicode="&#xec;" horiz-adv-x="191" d="M-15 47l250 952q10 41 57 41h68q27 0 36 -9t3 -34l-248 -952q-12 -45 -61 -45h-60q-57 0 -45 47zM131 1408.5q5 11.5 22 11.5h108q41 0 64 -35l116 -189q11 -16 1.5 -27.5t-27.5 -11.5h-33q-31 0 -59 29l-183 190q-14 21 -9 32.5z" />
<glyph unicode="&#xed;" horiz-adv-x="382" d="M-27 47l250 952q10 41 57 41h68q27 0 36 -9t3 -34l-248 -952q-12 -45 -61 -45h-60q-57 0 -45 47zM274 1168.5q-4 11.5 2 17.5l127 199q22 35 63 35h92q23 0 28 -13.5t-13 -38.5l-179 -186q-22 -25 -57 -25h-43q-16 0 -20 11.5z" />
<glyph unicode="&#xee;" horiz-adv-x="382" d="M-27 47l250 952q10 41 57 41h68q27 0 36 -9t3 -34l-248 -952q-12 -45 -61 -45h-60q-57 0 -45 47zM98 1150q-4 15 15 32l207 186q34 31 51 29l18 -2q21 -2 41 -37l109 -189q10 -14 4 -24t-25 -10h-59q-33 0 -43 22l-55 131l-129 -131q-23 -22 -58 -22h-49q-23 0 -27 15z " />
<glyph unicode="&#xef;" horiz-adv-x="401" d="M-3 47l250 952q10 41 57 41h68q26 0 35.5 -9t2.5 -34l-247 -952q-13 -45 -62 -45h-59q-58 0 -45 47zM171 1287q0 40 24.5 69.5t61.5 29.5h16q31 0 55.5 -30.5t24.5 -70.5t-25.5 -68.5t-64.5 -28.5h-14q-31 0 -54.5 29.5t-23.5 69.5zM406 1287q0 40 25 69.5t61 29.5h17 q31 0 55.5 -30.5t24.5 -70.5t-26 -68.5t-64 -28.5h-15q-31 0 -54.5 29.5t-23.5 69.5z" />
<glyph unicode="&#xf0;" horiz-adv-x="679" d="M11.5 348q11.5 223 96.5 398.5t171 246t190 64.5q18 -2 35 -6q-17 102 -43 190l-178 -37q-37 -8 -47 23l-25 57q-12 31 14 39l195 39q-23 57 -59 145q-9 21 1.5 35t34.5 14h95q43 0 59 -51q2 -6 13.5 -43t21.5 -65l160 33q28 4 40 -19l27 -51q8 -17 2 -31t-20 -18 l-178 -37q20 -80 40.5 -250t4.5 -340q-23 -270 -146 -488.5t-311 -211.5q-66 2 -121 57q-84 84 -72.5 307zM174 336q-6 -207 63.5 -211t153.5 151.5t117 428.5q6 102 -10.5 155t-85 47t-150.5 -185t-88 -386z" />
<glyph unicode="&#xf1;" horiz-adv-x="866" d="M-6 53l248 934q10 53 41 53h84q49 0 33 -59l-154 -516l213 352q68 111 139.5 167t122.5 56h43q33 0 51.5 -11t30 -50t-11.5 -115l-229 -835q-6 -29 -33 -29h-107q-30 0 -16 49l215 703q16 55 16 72.5t-14 17.5t-33.5 -18.5t-52.5 -67.5q-39 -56 -94 -145t-139 -220 q-158 -241 -224 -362q-16 -29 -49 -29h-57q-12 0 -20.5 16.5t-2.5 36.5zM264 1252l12 39q10 43 66 51q133 24 245.5 -19t261.5 0q29 9 43.5 -1.5t6.5 -39.5l-13 -49q-10 -41 -53 -53q-133 -39 -272.5 8t-253.5 10q-31 -10 -42.5 2.5t-0.5 51.5z" />
<glyph unicode="&#xf2;" d="M6 297q9 274 137 519t326 241q103 -6 160 -103q43 -67 35 -227q-8 -303 -166 -561q-109 -189 -293 -182q-65 2 -121 57q-84 80 -78 256zM172 317q-4 -184 64 -190q59 -2 119 88q139 219 147 490q2 120 -12.5 161t-60.5 42t-84 -43t-74 -122q-91 -182 -99 -426z M201 1408.5q5 11.5 22 11.5h108q41 0 64 -35l116 -189q11 -16 1.5 -27.5t-27.5 -11.5h-33q-31 0 -59 29l-183 190q-14 21 -9 32.5z" />
<glyph unicode="&#xf3;" d="M6 297q9 274 137 519t326 241q103 -6 160 -103q43 -67 35 -227q-8 -303 -166 -561q-109 -189 -293 -182q-65 2 -121 57q-84 80 -78 256zM172 317q-4 -184 64 -190q59 -2 119 88q139 219 147 490q2 120 -12.5 161t-60.5 42t-84 -43t-74 -122q-91 -182 -99 -426z M434 1168.5q-4 11.5 2 17.5l127 199q22 35 63 35h92q23 0 28 -13.5t-13 -38.5l-179 -186q-22 -25 -57 -25h-43q-16 0 -20 11.5z" />
<glyph unicode="&#xf4;" d="M6 297q9 274 137 519t326 241q103 -6 160 -103q43 -67 35 -227q-8 -303 -166 -561q-109 -189 -293 -182q-65 2 -121 57q-84 80 -78 256zM172 317q-4 -184 64 -190q59 -2 119 88q139 219 147 490q2 120 -12.5 161t-60.5 42t-84 -43t-74 -122q-91 -182 -99 -426zM247 1140 q-4 15 15 32l207 186q34 31 51 29l18 -2q21 -2 41 -37l109 -189q10 -14 4 -24t-25 -10h-59q-33 0 -43 22l-55 131l-129 -131q-23 -22 -58 -22h-49q-23 0 -27 15z" />
<glyph unicode="&#xf5;" d="M6 297q9 274 137 519t326 241q103 -6 160 -103q43 -67 35 -227q-8 -303 -166 -561q-109 -189 -293 -182q-65 2 -121 57q-84 80 -78 256zM172 317q-4 -184 64 -190q59 -2 119 88q139 219 147 490q2 120 -12.5 161t-60.5 42t-84 -43t-74 -122q-91 -182 -99 -426zM198 1221 l2 43q0 34 43 59t101.5 27t140 -34t141 -36t96.5 20.5t48 11.5t5 -38l-12 -55q-6 -27 -43 -48.5t-108.5 -21.5t-150.5 32.5t-123 32.5t-83 -20t-50 -13t-7 40z" />
<glyph unicode="&#xf6;" d="M6 297q9 274 137 519t326 241q103 -6 160 -103q43 -67 35 -227q-8 -303 -166 -561q-109 -189 -293 -182q-65 2 -121 57q-84 80 -78 256zM172 317q-4 -184 64 -190q59 -2 119 88q139 219 147 490q2 120 -12.5 161t-60.5 42t-84 -43t-74 -122q-91 -182 -99 -426zM229 1289 q0 40 28.5 70t71.5 30h19q35 0 63.5 -31t28.5 -71t-29.5 -68.5t-75.5 -28.5h-16q-35 0 -62.5 29.5t-27.5 69.5zM557 1289q0 40 28.5 70t71.5 30h18q35 0 64 -31t29 -71t-30 -68.5t-75 -28.5h-16q-35 0 -62.5 29.5t-27.5 69.5z" />
<glyph unicode="&#xf7;" horiz-adv-x="980" d="M19 686l18 72q6 22 27 22h901q43 0 35 -47l-11 -51q-10 -43 -53 -43h-880q-50 0 -37 47zM258 218q0 48 32 82t81 34h22q39 0 71 -35t32 -83t-33 -81t-84 -33h-20q-41 0 -71 34t-30 82zM465 1107q0 48 32 82t81 34h22q39 0 71 -35t32 -83t-33 -81t-84 -33h-20 q-41 0 -71 34t-30 82z" />
<glyph unicode="&#xf8;" horiz-adv-x="923" d="M-86 112.5q-2 14.5 29 51.5l174 160q14 260 135 491q129 246 328 242q127 -6 178 -146l127 117q39 37 74 4l26 -22q47 -43 15 -72l-226 -207v-4q-8 -303 -166 -561q-108 -189 -293 -182q-65 2 -114 49t-68 112l-92 -84q-51 -45 -74 -22l-28 33q-23 26 -25 40.5zM283 283 q2 -152 63 -156q60 -2 119 88q104 164 135 356zM299 492l313 286q-4 62 -12 88q-14 41 -60 42t-84 -43t-75 -122q-57 -114 -82 -251z" />
<glyph unicode="&#xf9;" horiz-adv-x="827" d="M15 250l209 762q6 28 32 28h107q31 0 16 -49l-207 -710q-14 -64 -4 -82q23 -33 103 88t413 725q17 28 50 28h77q13 0 21 -16t2 -37l-248 -934q-10 -53 -41 -53h-84q-49 0 -33 59l142 478l-187 -314q-65 -112 -132.5 -167.5t-118.5 -55.5h-13q-63 0 -99 69.5t-5 180.5z M205 1408.5q5 11.5 22 11.5h108q41 0 64 -35l116 -189q11 -16 1.5 -27.5t-27.5 -11.5h-33q-31 0 -59 29l-183 190q-14 21 -9 32.5z" />
<glyph unicode="&#xfa;" horiz-adv-x="827" d="M15 250l209 762q6 28 32 28h107q31 0 16 -49l-207 -710q-14 -64 -4 -82q23 -33 103 88t413 725q17 28 50 28h77q13 0 21 -16t2 -37l-248 -934q-10 -53 -41 -53h-84q-49 0 -33 59l142 478l-187 -314q-65 -112 -132.5 -167.5t-118.5 -55.5h-13q-63 0 -99 69.5t-5 180.5z M465 1168.5q-4 11.5 2 17.5l127 199q22 35 63 35h92q23 0 28 -13.5t-13 -38.5l-179 -186q-22 -25 -57 -25h-43q-16 0 -20 11.5z" />
<glyph unicode="&#xfb;" horiz-adv-x="827" d="M15 250l209 762q6 28 32 28h107q31 0 16 -49l-207 -710q-14 -64 -4 -82q23 -33 103 88t413 725q17 28 50 28h77q13 0 21 -16t2 -37l-248 -934q-10 -53 -41 -53h-84q-49 0 -33 59l142 478l-187 -314q-65 -112 -132.5 -167.5t-118.5 -55.5h-13q-63 0 -99 69.5t-5 180.5z M282 1142q-4 15 15 32l207 186q34 31 51 29l18 -2q21 -2 41 -37l109 -189q10 -14 4 -24t-25 -10h-59q-33 0 -43 22l-55 131l-129 -131q-23 -22 -58 -22h-49q-23 0 -27 15z" />
<glyph unicode="&#xfc;" horiz-adv-x="835" d="M15 250l209 762q6 28 32 28h107q31 0 16 -49l-207 -710q-14 -64 -4 -82q23 -33 103 88t413 725q17 28 50 28h77q13 0 21 -16t2 -37l-248 -934q-10 -53 -41 -53h-84q-49 0 -33 59l142 478l-187 -314q-65 -112 -132.5 -167.5t-118.5 -55.5h-13q-63 0 -99 69.5t-5 180.5z M289 1289q0 40 28.5 70t71.5 30h19q35 0 63.5 -31t28.5 -71t-29.5 -68.5t-75.5 -28.5h-16q-35 0 -62.5 29.5t-27.5 69.5zM617 1289q0 40 28.5 70t71.5 30h18q35 0 64 -31t29 -71t-30 -68.5t-75 -28.5h-16q-35 0 -62.5 29.5t-27.5 69.5z" />
<glyph unicode="&#xfd;" horiz-adv-x="841" d="M-39 -199.5q-2 23.5 12 37.5l31 43q33 35 68 17l227 -140q45 -24 68 56l198 702l-47 -90l-121 -203q-65 -112 -132.5 -167.5t-119.5 -55.5h-12q-43 0 -72 31q-71 78 -32 219l209 762q8 28 32 28h107q31 0 16 -49l-207 -710q-16 -64 -4 -80q23 -35 104 86t412 725 q17 28 49 28h78q13 0 21 -16t2 -37l-301 -1089q-49 -189 -162 -250q-49 -27 -66 -33q-41 -18 -120 31l-209 118q-27 13 -29 36.5zM483 1168.5q-4 11.5 2 17.5l127 199q22 35 63 35h92q23 0 28 -13.5t-13 -38.5l-179 -186q-22 -25 -57 -25h-43q-16 0 -20 11.5z" />
<glyph unicode="&#xfe;" horiz-adv-x="749" d="M-118 -344l475 1853q12 45 62 45h53q57 0 45 -47l-178 -694l28 47q43 72 98.5 123t90.5 51h4q16 0 51 -23.5t67.5 -63.5t46 -83t-4 -170t-99.5 -343t-158.5 -287.5t-195.5 -71.5q-66 0 -129 37l-100 -394q-13 -45 -62 -45h-41q-33 0 -46 18.5t-7 47.5zM169 143 q100 -57 169.5 -9t138.5 234.5t88 291t16 141.5t-35.5 54t-111.5 -70t-135.5 -233t-123.5 -390z" />
<glyph unicode="&#xff;" horiz-adv-x="831" d="M-49 -199.5q-2 23.5 12 37.5l31 43q33 35 68 17l227 -140q45 -24 68 56l198 702l-47 -90l-121 -203q-65 -112 -132.5 -167.5t-119.5 -55.5h-12q-43 0 -72 31q-71 78 -32 219l209 762q8 28 32 28h107q31 0 16 -49l-207 -710q-16 -64 -4 -80q23 -35 104 86t412 725 q17 28 49 28h78q13 0 21 -16t2 -37l-301 -1089q-49 -189 -162 -250q-49 -27 -66 -33q-41 -18 -120 31l-209 118q-27 13 -29 36.5zM293 1289q0 40 28.5 70t71.5 30h19q35 0 63.5 -31t28.5 -71t-29.5 -68.5t-75.5 -28.5h-16q-35 0 -62.5 29.5t-27.5 69.5zM621 1289 q0 40 28.5 70t71.5 30h18q35 0 64 -31t29 -71t-30 -68.5t-75 -28.5h-16q-35 0 -62.5 29.5t-27.5 69.5z" />
<glyph unicode="&#x178;" horiz-adv-x="819" d="M155 63l143 566q0 135 -31.5 384t-64.5 378q-13 36 0.5 62t44.5 28l57 8q29 2 41 -7t19 -42q63 -381 63 -672q191 285 269.5 421t140.5 267q14 31 61 27l64 -8q22 -2 31.5 -21.5t-7.5 -52.5q-235 -412 -530 -805l-140 -551q-12 -45 -61 -45h-59q-25 0 -36 18.5t-5 44.5z M350 1764q0 40 28.5 70t71.5 30h19q35 0 63.5 -31t28.5 -71t-29.5 -68.5t-75.5 -28.5h-16q-35 0 -62.5 29.5t-27.5 69.5zM678 1764q0 40 28.5 70t71.5 30h18q35 0 64 -31t29 -71t-30 -68.5t-75 -28.5h-16q-35 0 -62.5 29.5t-27.5 69.5z" />
<glyph unicode="&#x2c6;" horiz-adv-x="747" d="M159 1234q-4 15 15 32l207 186q34 31 51 29l18 -2q21 -2 41 -37l109 -189q10 -14 4 -24t-25 -10h-59q-33 0 -43 22l-55 131l-129 -131q-23 -22 -58 -22h-49q-23 0 -27 15z" />
<glyph unicode="&#x2dc;" horiz-adv-x="1140" d="M260 1182l12 39q10 43 66 51q133 24 245.5 -19t261.5 0q29 9 43.5 -1.5t6.5 -39.5l-13 -49q-10 -41 -53 -53q-133 -39 -272.5 8t-253.5 10q-31 -10 -42.5 2.5t-0.5 51.5z" />
<glyph unicode="&#x2000;" horiz-adv-x="963" />
<glyph unicode="&#x2001;" horiz-adv-x="1927" />
<glyph unicode="&#x2002;" horiz-adv-x="963" />
<glyph unicode="&#x2003;" horiz-adv-x="1927" />
<glyph unicode="&#x2004;" horiz-adv-x="642" />
<glyph unicode="&#x2005;" horiz-adv-x="481" />
<glyph unicode="&#x2006;" horiz-adv-x="321" />
<glyph unicode="&#x2007;" horiz-adv-x="321" />
<glyph unicode="&#x2008;" horiz-adv-x="240" />
<glyph unicode="&#x2009;" horiz-adv-x="385" />
<glyph unicode="&#x200a;" horiz-adv-x="107" />
<glyph unicode="&#x2010;" horiz-adv-x="784" d="M109 641l18 72q6 22 27 22h512q18 0 28.5 -13t6.5 -34l-11 -51q-8 -43 -53 -43h-491q-50 0 -37 47z" />
<glyph unicode="&#x2011;" horiz-adv-x="784" d="M109 641l18 72q6 22 27 22h512q18 0 28.5 -13t6.5 -34l-11 -51q-8 -43 -53 -43h-491q-50 0 -37 47z" />
<glyph unicode="&#x2012;" horiz-adv-x="784" d="M109 641l18 72q6 22 27 22h512q18 0 28.5 -13t6.5 -34l-11 -51q-8 -43 -53 -43h-491q-50 0 -37 47z" />
<glyph unicode="&#x2013;" horiz-adv-x="1241" d="M109 641l18 72q6 22 27 22h901q43 0 35 -47l-11 -51q-10 -43 -53 -43h-880q-50 0 -37 47z" />
<glyph unicode="&#x2014;" horiz-adv-x="1705" d="M109 641l18 72q6 22 27 22h1493q18 0 28.5 -13t6.5 -34l-11 -49q-8 -45 -53 -45h-1472q-50 0 -37 47z" />
<glyph unicode="&#x2018;" horiz-adv-x="464" d="M160 1094q0 211 147 460q49 88 103 88q24 0 24 -29.5t-31.5 -113.5t-49 -191.5t-19.5 -191.5q0 -35 -43 -45l-82 -18q-49 -11 -49 41z" />
<glyph unicode="&#x2019;" horiz-adv-x="421" d="M186 1124.5q-1 26.5 30.5 102.5t47 170t23.5 227q0 35 43 46l82 18q49 8 49 -41q0 -211 -147 -461q-51 -88 -103 -88q-24 0 -25 26.5z" />
<glyph unicode="&#x201a;" horiz-adv-x="589" d="M-50 -309.5q-1 26.5 30.5 102.5t47 170t23.5 227q0 35 43 46l82 18q49 8 49 -41q0 -211 -147 -461q-51 -88 -103 -88q-24 0 -25 26.5z" />
<glyph unicode="&#x201c;" horiz-adv-x="636" d="M150 1094q0 211 147 460q49 88 103 88q24 0 24 -29.5t-31.5 -113.5t-49 -191.5t-19.5 -191.5q0 -35 -43 -45l-82 -18q-49 -11 -49 41zM455 1094q0 211 147 460q49 88 103 88q24 0 24 -29.5t-31.5 -113.5t-49 -191.5t-19.5 -191.5q0 -35 -43 -45l-82 -18q-49 -11 -49 41z " />
<glyph unicode="&#x201d;" horiz-adv-x="653" d="M136 1124.5q-1 26.5 30.5 102.5t47 170t23.5 227q0 35 43 46l82 18q49 8 49 -41q0 -211 -147 -461q-51 -88 -103 -88q-24 0 -25 26.5zM444 1124.5q-1 26.5 30.5 102.5t47 170t23.5 227q0 35 43 46l82 18q49 8 49 -41q0 -211 -147 -461q-51 -88 -103 -88q-24 0 -25 26.5z " />
<glyph unicode="&#x201e;" horiz-adv-x="753" d="M-50 -309.5q-1 26.5 30.5 102.5t47 170t23.5 227q0 35 43 46l82 18q49 8 49 -41q0 -211 -147 -461q-51 -88 -103 -88q-24 0 -25 26.5zM257 -309.5q-1 26.5 30.5 102.5t47 170t23.5 227q0 35 43 46l82 18q49 8 49 -41q0 -211 -147 -461q-51 -88 -103 -88q-24 0 -25 26.5z " />
<glyph unicode="&#x2022;" horiz-adv-x="966" d="M344 549q0 100 71.5 171t172 71t172 -71t71.5 -180.5t-68.5 -172t-172 -62.5t-175 72t-71.5 172z" />
<glyph unicode="&#x2026;" horiz-adv-x="1294" d="M61 78q0 47 34 81t83 34h23q39 0 72.5 -36t33.5 -82t-34.5 -80t-86.5 -34h-20q-41 0 -73 35t-32 82zM498 78q0 47 33.5 81t82.5 34h23q39 0 72.5 -36t33.5 -82t-34.5 -80t-85.5 -34h-21q-41 0 -72.5 35t-31.5 82zM934 78q0 47 33.5 81t83.5 34h22q39 0 73 -36t34 -82 t-35 -80t-86 -34h-21q-41 0 -72.5 35t-31.5 82z" />
<glyph unicode="&#x202f;" horiz-adv-x="385" />
<glyph unicode="&#x2039;" horiz-adv-x="518" d="M197 535q-17 49 16 88l275 315q20 25 63 25h33q22 0 28.5 -12.5t-8.5 -32.5l-280 -369l108 -334q19 -49 -28 -49h-33q-43 0 -60 47z" />
<glyph unicode="&#x203a;" horiz-adv-x="518" d="M62 211l281 369l-109 333q-18 50 29 50h33q43 0 59 -48l115 -321q16 -49 -16 -88l-275 -316q-20 -24 -63 -24h-33q-49 0 -21 45z" />
<glyph unicode="&#x205f;" horiz-adv-x="481" />
<glyph unicode="&#x20ac;" horiz-adv-x="921" d="M-113 592l8 35q6 30 35 30h112q8 54 21 107h-103q-22 0 -28 8t0 39l6 25q6 26 28 26h123q52 178 142 329.5t215 234.5t229.5 65t162.5 -109.5t71 -267.5q4 -49 -39 -65l-80 -27q-19 -8 -28 1t-7 32q2 272 -120 281.5t-222 -155.5t-145 -319h561q35 0 26 -35l-6 -28 q-6 -35 -43 -35h-567q-14 -51 -25 -107h523q30 0 40.5 -9t2.5 -36l-7 -22q-4 -19 -13 -25t-30 -6h-530q-21 -180 8 -303t109 -123t147.5 67.5t104.5 172.5q10 33 23 38t52 -3l50 -13q32 -4 26 -33q-2 -12 -10 -34q-76 -201 -190.5 -276t-251 -51t-200 174.5t-38.5 383.5 h-115q-37 0 -28 33z" />
<glyph unicode="&#x2122;" horiz-adv-x="890" d="M64 1459q-7 7 1 36l8 33q6 28 22 28h502q39 0 27 -47l-4 -16q-8 -41 -43 -41h-187l-106 -428q-8 -33 -45 -33h-45q-19 0 -26 13.5t-3 31.5l102 416h-172q-24 0 -31 7zM544 1038l127 486q8 32 43 32h65q33 0 35 -34q4 -70 12.5 -180.5t10.5 -202.5l262 387q18 28 41 28h51 q19 0 26 -13t3 -32l-131 -483q-6 -33 -43 -33h-41q-19 0 -26 13.5t-3 31.5l62 234q-29 -47 -81.5 -126t-64.5 -100.5t-27.5 -36t-42.5 -12.5l-49 2q-34 0 -37 64q-4 104 -12 213l-65 -250q-9 -33 -45 -33h-41q-19 0 -26 13.5t-3 31.5z" />
<glyph unicode="&#x25fc;" horiz-adv-x="1040" d="M0 0v1040h1040v-1040h-1040z" />
</font>
</defs>
</svg>
