<?xml version="1.0" encoding="utf-8"?>
<!-- Generator: Adobe Illustrator 15.1.0, SVG Export Plug-In . SVG Version: 6.00 Build 0)  -->
<!DOCTYPE svg PUBLIC "-//W3C//DTD SVG 1.1//EN" "http://www.w3.org/Graphics/SVG/1.1/DTD/svg11.dtd">
<svg version="1.1" id="Layer_1" xmlns="http://www.w3.org/2000/svg" xmlns:xlink="http://www.w3.org/1999/xlink" x="0px" y="0px"
	 width="569.361px" height="166.785px" viewBox="0 0 569.361 166.785" enable-background="new 0 0 569.361 166.785"
	 xml:space="preserve">
<g>
	<path fill="#58595B" d="M154.146,38.063c0-0.126,0.071-0.189,0.213-0.189h0.661c1.431,0,2.658-0.393,3.681-1.18
		c0.787-0.582,1.267-1.29,1.439-2.124l5.569-26.122c0.016-0.048,0.023-0.11,0.023-0.189c0-0.314-0.244-0.472-0.731-0.472h-6.938
		c-1.18,0-2.258,0.566-3.233,1.699c-0.943,1.117-1.526,2.352-1.746,3.705c-0.047,0.235-0.106,0.361-0.177,0.377
		c-0.071,0.017-0.122,0.023-0.153,0.023h-0.543c-0.11,0-0.165-0.055-0.165-0.165c0.739-3.649,1.227-6.009,1.463-7.079l0.213-1.015
		c0.078-0.472,0.282-0.708,0.613-0.708c0.109,0,0.208,0.047,0.295,0.142c0.086,0.095,0.192,0.197,0.318,0.307
		c0.33,0.315,0.811,0.472,1.439,0.472h24.802c0.66,0,1.089-0.105,1.286-0.318c0.196-0.212,0.334-0.365,0.412-0.46
		c0.079-0.095,0.197-0.142,0.354-0.142c0.409,0,0.613,0.181,0.613,0.543c0,0.063-0.063,0.362-0.188,0.896
		c-0.299,1.447-0.755,3.666-1.369,6.654l-0.142,0.638c-0.016,0.157-0.103,0.235-0.259,0.235h-0.308c-0.22,0-0.417-0.562-0.59-1.687
		s-0.338-1.932-0.495-2.419c-0.394-1.133-1.015-1.699-1.864-1.699h-7.434c-0.204,0-0.386,0.027-0.543,0.083
		c-0.157,0.055-0.275,0.247-0.354,0.578c-0.692,3.272-1.306,6.155-1.841,8.648s-0.999,4.664-1.393,6.513
		c-0.393,1.849-0.724,3.41-0.99,4.685c-0.269,1.274-0.492,2.324-0.673,3.15c-0.182,0.825-0.318,1.467-0.413,1.923
		s-0.165,0.795-0.212,1.015c-0.079,0.347-0.118,0.638-0.118,0.873c0,0.236,0.165,0.512,0.495,0.826s0.731,0.598,1.204,0.85
		c1.18,0.629,2.344,0.943,3.492,0.943h0.685c0.125,0,0.188,0.063,0.188,0.189v0.566c0,0.126-0.063,0.188-0.188,0.188h-16.212
		c-0.126,0-0.189-0.063-0.189-0.188V38.063z"/>
	<path fill="#58595B" d="M183.267,38.818c0-0.204,0.039-0.472,0.118-0.803c0.142-0.629,0.229-1.03,0.26-1.203l6.891-32.376
		c0.063-0.252,0.095-0.456,0.095-0.614c0-0.393-0.174-0.59-0.52-0.59c-0.268,0-0.648,0.118-1.145,0.354
		c-0.495,0.235-1.026,0.487-1.593,0.755l-0.307-0.731c4.437-2.407,6.808-3.61,7.114-3.61c0.308,0,0.461,0.26,0.461,0.778
		c0,0.048-0.048,0.283-0.142,0.708l-5.357,25.297c0,0.157,0.071,0.236,0.213,0.236c0.157,0,0.421-0.208,0.79-0.625
		c0.37-0.417,0.83-0.929,1.381-1.534s1.152-1.235,1.805-1.888c0.653-0.653,1.334-1.302,2.042-1.947
		c0.708-0.645,1.407-1.227,2.1-1.746c1.573-1.133,2.832-1.699,3.776-1.699c0.472,0,0.885,0.186,1.238,0.555
		c0.354,0.37,0.531,0.759,0.531,1.168s-0.023,0.716-0.071,0.921l-4.2,16.329v0.095c0,0.346,0.196,0.52,0.59,0.52
		c0.629,0,1.738-0.834,3.327-2.502c0.173-0.173,0.299-0.299,0.378-0.378l0.448,0.449c-0.299,0.582-0.932,1.273-1.899,2.076
		s-1.68,1.354-2.136,1.652c-1.038,0.691-1.821,1.038-2.348,1.038c-0.527,0-0.968-0.189-1.321-0.566
		c-0.354-0.378-0.531-0.768-0.531-1.168c0-0.401,0.023-0.712,0.07-0.933l4.201-16.329v-0.095c0-0.142-0.067-0.264-0.201-0.366
		c-0.134-0.102-0.307-0.149-0.519-0.142c-0.213,0.009-0.578,0.197-1.098,0.566c-0.52,0.37-1.102,0.846-1.746,1.428
		c-0.646,0.582-1.321,1.228-2.029,1.936s-1.385,1.408-2.029,2.1c-1.542,1.652-2.502,2.746-2.88,3.28
		c-0.377,0.535-0.613,1.03-0.707,1.487l-1.676,7.857c-1.086,0.629-1.92,0.944-2.502,0.944S183.267,39.274,183.267,38.818z"/>
	<path fill="#58595B" d="M214.274,37.544c1.494,0,3.319-0.66,5.475-1.982l0.33,0.59c-1.651,1.274-3.523,2.234-5.616,2.879
		c-0.912,0.283-1.845,0.425-2.796,0.425c-0.952,0-1.758-0.2-2.419-0.602s-1.203-0.939-1.628-1.616
		c-0.787-1.29-1.181-2.957-1.181-5.003c0.314-3.492,1.573-6.726,3.776-9.698c1.494-2.014,3.287-3.445,5.38-4.295
		c1.069-0.44,2.033-0.661,2.891-0.661s1.522,0.075,1.994,0.225s0.889,0.374,1.251,0.672c0.802,0.646,1.203,1.46,1.203,2.442
		c0,0.983-0.208,1.829-0.625,2.537s-0.964,1.321-1.641,1.841c-0.676,0.52-1.447,0.968-2.313,1.345
		c-0.865,0.378-1.742,0.708-2.631,0.991s-1.762,0.539-2.619,0.767c-0.857,0.229-1.609,0.461-2.254,0.696
		c-0.504,1.181-0.755,2.384-0.755,3.61c0,2.203,0.747,3.682,2.241,4.437C212.874,37.41,213.52,37.544,214.274,37.544z
		 M211.183,27.68c0,0.269,0.213,0.401,0.638,0.401c2.375-0.691,4.074-1.396,5.097-2.111s1.798-1.467,2.325-2.254
		c0.526-0.786,0.79-1.73,0.79-2.832c0-1.116-0.347-1.849-1.038-2.194c-0.236-0.126-0.61-0.188-1.121-0.188
		c-0.512,0-1.059,0.153-1.64,0.46c-0.583,0.307-1.109,0.716-1.581,1.227c-0.473,0.512-0.897,1.09-1.274,1.734
		c-0.378,0.646-0.708,1.307-0.991,1.982C211.915,25.037,211.514,26.296,211.183,27.68z"/>
	<path fill="#58595B" d="M235.796,38.535c0-0.44,0.165-0.661,0.495-0.661h0.52c0.598,0,1.054-0.113,1.368-0.342
		c0.314-0.228,0.865-0.857,1.652-1.888c0.786-1.03,1.884-2.458,3.292-4.283c1.407-1.824,2.823-3.665,4.247-5.521
		s2.84-3.705,4.248-5.546c1.407-1.841,2.761-3.606,4.059-5.298c1.298-1.69,2.517-3.28,3.658-4.767
		c1.14-1.486,1.97-2.568,2.489-3.245c0.519-0.676,0.9-1.112,1.145-1.31c0.243-0.196,0.546-0.295,0.908-0.295h0.613
		c0.456,0,0.747,0.122,0.873,0.366s0.197,0.547,0.213,0.908l0.685,28.624c0.047,1.322,0.857,2.14,2.431,2.454
		c0.425,0.095,0.833,0.142,1.227,0.142h1.038c0.205,0,0.308,0.118,0.308,0.354v0.26c0,0.22-0.11,0.33-0.331,0.33h-14.654
		c-0.221,0-0.33-0.086-0.33-0.26V38.11c0-0.157,0.196-0.236,0.59-0.236s0.806-0.015,1.239-0.047
		c0.433-0.031,0.798-0.078,1.097-0.142c1.133-0.188,1.872-0.511,2.219-0.968c0.346-0.456,0.582-0.889,0.708-1.298
		c0.188-0.598,0.283-1.447,0.283-2.548l-0.165-6.797V25.65c0-0.691-0.418-1.038-1.251-1.038h-9.486c-0.63,0-1.141,0.268-1.534,0.803
		c-0.802,1.085-1.616,2.155-2.442,3.209c-0.826,1.055-1.49,1.916-1.994,2.584c-0.504,0.669-0.857,1.145-1.062,1.428
		c-0.205,0.283-0.394,0.574-0.566,0.873c-0.394,0.677-0.59,1.354-0.59,2.029c0,0.677,0.295,1.235,0.885,1.676s1.364,0.66,2.324,0.66
		h1.156c0.204,0,0.307,0.087,0.307,0.26c-0.063,0.394-0.138,0.606-0.224,0.638c-0.087,0.031-0.209,0.047-0.366,0.047h-10.831
		C235.945,38.818,235.796,38.724,235.796,38.535z M261.824,21.663l-0.26-10.572c0-0.425-0.079-0.637-0.236-0.637
		c-0.173,0.016-0.409,0.228-0.708,0.637s-0.763,1.03-1.392,1.864c-0.63,0.834-1.321,1.73-2.077,2.69
		c-1.667,2.14-2.855,3.678-3.563,4.613c-0.708,0.936-1.102,1.455-1.181,1.558c-0.078,0.103-0.157,0.208-0.235,0.318
		c-0.205,0.283-0.307,0.472-0.307,0.566c0,0.094,0.039,0.142,0.117,0.142h8.708c0.346,0,0.621-0.106,0.826-0.318
		C261.722,22.312,261.824,22.024,261.824,21.663z"/>
	<path fill="#58595B" d="M274.731,38.818c0-0.204,0.039-0.472,0.118-0.803c0.142-0.629,0.228-1.03,0.26-1.203l3.162-14.961v-0.095
		c0-0.44-0.181-0.66-0.543-0.66c-0.235,0-0.629,0.279-1.18,0.837c-0.551,0.56-1.274,1.295-2.171,2.207l-0.566-0.59
		c0.346-0.708,1.612-1.975,3.799-3.8c1.715-1.447,2.918-2.171,3.61-2.171c0.566,0,0.85,0.559,0.85,1.676
		c0,0.472-0.055,0.96-0.165,1.463l-1.25,6.041c0,0.174,0.066,0.26,0.2,0.26s0.26-0.066,0.378-0.201
		c0.117-0.133,0.389-0.437,0.813-0.908s0.991-1.133,1.699-1.982s1.341-1.553,1.899-2.111s1.105-1.065,1.641-1.522
		c0.534-0.456,1.085-0.889,1.651-1.298c1.369-0.944,2.36-1.416,2.974-1.416s1.104,0.186,1.475,0.555
		c0.369,0.37,0.555,0.735,0.555,1.098c0,0.456-0.023,0.778-0.071,0.967l-1.298,6.207c-0.031,0.157-0.047,0.299-0.047,0.425
		s0.063,0.188,0.188,0.188c0.314,0,1.047-0.728,2.195-2.183c1.147-1.455,2.002-2.462,2.561-3.021
		c0.558-0.559,1.104-1.065,1.64-1.522c0.534-0.456,1.093-0.889,1.676-1.298c1.353-0.944,2.336-1.416,2.949-1.416
		s1.098,0.186,1.451,0.555c0.354,0.37,0.531,0.759,0.531,1.168s-0.023,0.716-0.071,0.921l-3.469,16.329v0.095
		c0,0.346,0.197,0.52,0.59,0.52c0.63,0,1.747-0.834,3.352-2.502c0.157-0.173,0.274-0.299,0.354-0.378l0.448,0.449
		c-0.314,0.613-1.211,1.518-2.689,2.713c-1.668,1.354-2.927,2.03-3.776,2.03c-0.472,0-0.885-0.186-1.238-0.555
		c-0.354-0.37-0.531-0.756-0.531-1.156c0-0.401,0.023-0.712,0.07-0.933l3.47-16.329v-0.095c0-0.346-0.197-0.52-0.59-0.52
		c-0.583,0-1.377,0.52-2.384,1.558c-2.014,2.093-3.587,3.839-4.72,5.239c-0.142,0.142-0.314,0.334-0.52,0.578
		c-0.204,0.244-0.417,0.491-0.637,0.743c-0.409,0.472-0.7,0.83-0.873,1.073c-0.174,0.244-0.339,0.46-0.495,0.649
		c-0.158,0.188-0.283,0.511-0.378,0.968l-1.699,7.857c-1.086,0.629-1.92,0.944-2.501,0.944c-0.583,0-0.873-0.229-0.873-0.685
		c0-0.204,0.039-0.472,0.117-0.803c0.142-0.629,0.229-1.03,0.26-1.203l3.469-16.306v-0.095c0-0.346-0.196-0.52-0.59-0.52
		c-0.582,0-1.377,0.52-2.383,1.558c-2.392,2.47-3.827,3.996-4.307,4.578c-0.48,0.582-0.818,0.995-1.015,1.239
		c-0.197,0.244-0.39,0.491-0.578,0.743c-0.378,0.456-0.657,0.811-0.838,1.062c-0.182,0.252-0.351,0.472-0.508,0.661
		c-0.157,0.188-0.283,0.511-0.377,0.968l-1.699,7.857c-1.086,0.629-1.92,0.944-2.502,0.944S274.731,39.274,274.731,38.818z"/>
	<path fill="#58595B" d="M321.338,35.243c0.063-0.291,0.125-0.566,0.188-0.826c0.063-0.259,0.102-0.522,0.118-0.79
		c0.016-0.268-0.04-0.401-0.165-0.401c-0.174,0-0.559,0.264-1.156,0.791c-0.599,0.526-1.149,1.011-1.652,1.451
		c-0.504,0.44-1.034,0.896-1.593,1.368s-1.105,0.896-1.64,1.274c-1.212,0.896-2.101,1.345-2.667,1.345s-1.026-0.235-1.381-0.707
		c-0.354-0.473-0.625-1.03-0.813-1.676c-0.315-1.102-0.473-2.163-0.473-3.186c0-3.272,1.243-6.411,3.729-9.416
		c2.376-2.832,5.294-4.838,8.755-6.018c1.715-0.582,3.461-0.873,5.239-0.873c0.267,0,0.401,0.221,0.401,0.661l-3.563,16.329
		c-0.016,0.127-0.032,0.252-0.048,0.378c-0.031,0.221-0.047,0.429-0.047,0.625c0,0.197,0.063,0.39,0.188,0.578
		c0.126,0.189,0.264,0.283,0.413,0.283s0.339-0.09,0.566-0.271c0.229-0.181,0.46-0.382,0.696-0.603
		c0.661-0.566,1.069-0.85,1.228-0.85c0.251,0,0.377,0.142,0.377,0.425c0,0.3-0.85,1.102-2.549,2.407
		c-1.715,1.337-2.792,2.006-3.232,2.006c-0.488,0-0.826-0.322-1.015-0.968c-0.095-0.346-0.142-0.735-0.142-1.168
		s0.023-0.829,0.07-1.191C321.22,35.861,321.274,35.534,321.338,35.243z M324.429,20.648c0-0.252-0.299-0.378-0.896-0.378
		c-0.599,0-1.298,0.106-2.101,0.318c-0.802,0.213-1.573,0.516-2.313,0.908c-2.722,1.433-4.468,3.855-5.238,7.269
		c-0.331,1.479-0.516,2.667-0.555,3.563c-0.04,0.896-0.044,1.558-0.012,1.982c0.031,0.425,0.109,0.825,0.235,1.203
		c0.314,0.881,0.897,1.321,1.747,1.321c1.132-0.582,2.355-1.463,3.669-2.643s2.355-2.116,3.127-2.809L324.429,20.648z"/>
	<path fill="#58595B" d="M337.243,34.004l1.345-0.141c2.045,0,4.012,0.621,5.899,1.863c1.242,0.818,2.384,1.228,3.422,1.228
		c1.431,0,2.438-0.354,3.021-1.062c0.472-0.582,0.802-0.956,0.991-1.121c0.188-0.165,0.385-0.248,0.59-0.248
		c0.456,0,0.685,0.229,0.685,0.685c0,0.236-0.288,0.609-0.861,1.121c-0.575,0.511-1.102,0.936-1.581,1.274
		c-0.48,0.338-0.988,0.648-1.522,0.932c-1.243,0.645-2.223,0.968-2.938,0.968c-0.717,0-1.286-0.06-1.711-0.177
		c-0.425-0.118-0.838-0.271-1.239-0.461c-0.401-0.188-0.795-0.396-1.18-0.625c-0.386-0.228-0.768-0.448-1.145-0.661
		c-0.378-0.212-0.807-0.428-1.286-0.648c-0.48-0.221-0.979-0.425-1.499-0.613c-1.164-0.409-1.99-0.614-2.478-0.614
		s-0.85,0.036-1.085,0.106c-0.236,0.071-0.465,0.177-0.685,0.318c-0.472,0.299-0.743,0.595-0.814,0.885
		c-0.07,0.292-0.114,0.563-0.13,0.814c-0.016,0.252-0.063,0.496-0.142,0.731c-0.157,0.582-0.519,0.896-1.085,0.944
		c-0.63,0-0.944-0.362-0.944-1.086c0-1.321,1.439-3.106,4.318-5.356c3.352-2.627,7.418-5.176,12.2-7.646
		c1.007-0.504,1.821-0.999,2.442-1.487c0.621-0.487,0.933-0.794,0.933-0.92c0-0.236-0.221-0.354-0.661-0.354l-1.463,0.094
		c-1.888,0-3.815-0.448-5.781-1.345c-1.967-0.896-3.501-1.346-4.602-1.346c-0.441,0-0.933,0.292-1.476,0.874
		c-0.542,0.582-0.932,1.002-1.168,1.262c-0.235,0.26-0.421,0.39-0.555,0.39s-0.279-0.078-0.437-0.236
		c-0.157-0.156-0.235-0.33-0.235-0.519c0-0.189,0.121-0.44,0.365-0.755c0.244-0.315,0.559-0.63,0.944-0.944
		c0.385-0.314,0.813-0.617,1.286-0.908c0.472-0.291,0.936-0.555,1.392-0.791c1.054-0.503,1.896-0.755,2.525-0.755
		c0.629,0,1.286,0.082,1.971,0.248c0.684,0.165,1.329,0.373,1.935,0.625s1.184,0.527,1.734,0.826s1.102,0.574,1.652,0.825
		c1.242,0.583,2.253,0.874,3.032,0.874c0.778,0,1.337-0.138,1.675-0.413c0.339-0.275,0.594-0.555,0.768-0.838
		c0.173-0.283,0.274-0.547,0.307-0.791c0.031-0.243,0.07-0.476,0.118-0.696c0.109-0.503,0.433-0.755,0.968-0.755
		c0.251,0,0.495,0.087,0.731,0.26c0.235,0.173,0.354,0.354,0.354,0.543c0,0.188-0.047,0.394-0.142,0.613
		c-0.095,0.221-0.212,0.44-0.354,0.661c-0.787,1.368-1.798,2.56-3.032,3.575c-1.235,1.015-2.333,1.864-3.292,2.548
		c-0.96,0.685-1.861,1.259-2.702,1.723c-0.842,0.465-1.68,0.917-2.514,1.357c-2.233,1.18-3.646,1.998-4.235,2.454
		s-1.011,0.763-1.263,0.92s-0.504,0.33-0.755,0.52c-0.677,0.487-1.015,0.818-1.015,0.991S336.975,34.004,337.243,34.004z"/>
	<path fill="#58595B" d="M367.33,19.657l-3.516,16.99c0,0.346,0.188,0.52,0.566,0.52c0.629,0,1.738-0.834,3.327-2.502
		c0.173-0.173,0.299-0.299,0.377-0.378l0.449,0.449c-0.283,0.566-0.913,1.25-1.889,2.053c-0.976,0.802-1.69,1.354-2.147,1.651
		c-1.007,0.677-1.805,1.015-2.395,1.015s-1.035-0.216-1.333-0.648c-0.3-0.433-0.449-0.806-0.449-1.121
		c0-0.44,0.039-0.826,0.118-1.156l3.398-16.022v-0.095c0-0.346-0.197-0.52-0.59-0.52c-0.677,0-1.707,0.748-3.092,2.242
		c-0.283,0.314-0.487,0.527-0.613,0.637l-0.448-0.448c0.314-0.613,1.203-1.518,2.666-2.714c1.684-1.353,2.879-2.029,3.587-2.029
		s1.216,0.217,1.522,0.649S367.33,19.138,367.33,19.657z M366.375,11.409c-0.197-0.274-0.323-0.519-0.378-0.731
		c-0.056-0.212-0.083-0.444-0.083-0.696c0-0.251,0.051-0.613,0.153-1.085c0.103-0.473,0.256-0.929,0.461-1.369
		c0.472-1.038,1.093-1.558,1.864-1.558c0.708,0,1.171,0.394,1.392,1.181c0.063,0.22,0.095,0.456,0.095,0.708
		c0,0.251-0.063,0.605-0.188,1.062c-0.127,0.456-0.3,0.904-0.52,1.345c-0.566,1.039-1.195,1.558-1.888,1.558
		C366.874,11.822,366.571,11.685,366.375,11.409z"/>
	<path fill="#58595B" d="M379.53,17.58c0.566,0,0.85,0.527,0.85,1.581c0,0.472-0.027,0.834-0.082,1.086
		c-0.057,0.252-0.127,0.59-0.213,1.015s-0.217,1.058-0.389,1.899c-0.174,0.842-0.418,2.041-0.732,3.599
		c0,0.174,0.066,0.26,0.201,0.26c0.133,0,0.26-0.066,0.377-0.201c0.119-0.133,0.303-0.342,0.555-0.625s0.641-0.728,1.168-1.333
		s1.094-1.235,1.699-1.888c0.605-0.653,1.234-1.302,1.889-1.947c0.652-0.645,1.3-1.227,1.945-1.746
		c1.463-1.133,2.676-1.699,3.637-1.699c0.471,0,0.885,0.186,1.238,0.555c0.354,0.37,0.531,0.759,0.531,1.168
		s-0.023,0.716-0.072,0.921l-4.201,16.329v0.095c0,0.346,0.197,0.52,0.59,0.52c0.629,0,1.74-0.834,3.328-2.502
		c0.174-0.173,0.299-0.299,0.379-0.378l0.447,0.449c-0.314,0.613-1.203,1.518-2.666,2.713c-1.684,1.354-2.951,2.03-3.801,2.03
		c-0.471,0-0.885-0.186-1.238-0.555c-0.354-0.37-0.531-0.756-0.531-1.156c0-0.401,0.023-0.712,0.07-0.933l4.201-16.329v-0.095
		c0-0.142-0.066-0.264-0.201-0.366c-0.133-0.102-0.307-0.149-0.518-0.142c-0.213,0.009-0.566,0.197-1.063,0.566
		c-0.496,0.37-1.043,0.846-1.641,1.428c-0.597,0.582-1.222,1.228-1.875,1.936c-0.654,0.708-1.279,1.408-1.877,2.1
		c-1.637,1.888-2.592,3.041-2.867,3.457c-0.275,0.417-0.461,0.854-0.555,1.311l-1.699,7.857c-1.086,0.629-1.92,0.944-2.5,0.944
		c-0.584,0-0.875-0.229-0.875-0.685c0-0.204,0.039-0.472,0.119-0.803c0.141-0.629,0.229-1.03,0.26-1.203l3.162-14.961v-0.095
		c0-0.44-0.182-0.66-0.543-0.66c-0.236,0-0.629,0.279-1.18,0.837c-0.551,0.56-1.275,1.295-2.172,2.207l-0.566-0.59
		c0.346-0.708,1.605-1.975,3.775-3.8C377.625,18.304,378.838,17.58,379.53,17.58z"/>
	<path fill="#58595B" d="M414.244,19.444c0,0.236-0.143,0.354-0.426,0.354h-2.785c0.063,0.268,0.146,0.563,0.248,0.885
		c0.104,0.322,0.201,0.688,0.295,1.097c0.221,0.929,0.33,1.924,0.33,2.985c0,1.063-0.16,2.058-0.482,2.985
		c-0.322,0.929-0.752,1.786-1.287,2.572c-0.881,1.29-2.217,2.666-4.012,4.13c-0.613,0.503-1.529,1.022-2.748,1.557
		c-1.221,0.535-2.033,0.929-2.443,1.181c-0.408,0.252-0.613,0.602-0.613,1.05s0.236,0.947,0.709,1.498
		c0.471,0.551,1.064,1.094,1.781,1.629c0.715,0.534,1.486,1.077,2.313,1.628s1.592,1.125,2.301,1.723
		c1.668,1.384,2.502,2.729,2.502,4.035c0,2.281-1.951,3.847-5.854,4.696c-1.4,0.314-2.824,0.472-4.271,0.472
		s-2.816-0.056-4.105-0.165c-1.291-0.11-2.414-0.322-3.375-0.637c-2.123-0.661-3.186-1.825-3.186-3.493
		c0-1.29,0.992-2.619,2.975-3.988c1.068-0.739,2.053-1.353,2.949-1.84c0.896-0.488,1.494-0.826,1.793-1.015
		c0.881-0.535,1.393-0.873,1.533-1.015c-0.078-0.3-0.18-0.603-0.307-0.909c-0.125-0.307-0.188-0.625-0.188-0.955
		c0-0.331,0.055-0.622,0.164-0.874c0.109-0.251,0.256-0.487,0.438-0.707c0.18-0.221,0.389-0.449,0.625-0.685
		c0.582-0.551,0.873-0.873,0.873-0.968s-0.082-0.231-0.248-0.413c-0.164-0.181-0.357-0.381-0.578-0.602
		c-0.473-0.409-0.861-0.782-1.168-1.121c-0.307-0.338-0.582-0.743-0.826-1.215c-0.244-0.473-0.445-0.976-0.602-1.511
		c-0.283-1.038-0.424-2.057-0.424-3.056s0.172-1.938,0.518-2.82c0.346-0.881,0.818-1.73,1.416-2.548
		c0.598-0.818,1.287-1.581,2.066-2.289c0.777-0.708,1.607-1.322,2.488-1.841c1.889-1.117,3.689-1.676,5.404-1.676
		c3.461,0,5.482,0.174,6.064,0.52c0.094,0.047,0.143,0.134,0.143,0.26V19.444z M393.549,46.192
		c-0.441,0.433-0.799,0.889-1.074,1.369c-0.275,0.479-0.414,1.065-0.414,1.758s0.193,1.31,0.578,1.853
		c0.387,0.543,0.941,0.971,1.664,1.286c1.227,0.52,3.217,0.778,5.971,0.778c2.281,0,4.176-0.456,5.688-1.368
		c0.99-0.599,1.486-1.354,1.486-2.266c0-1.038-1.031-2.258-3.092-3.657c-0.566-0.394-1.148-0.787-1.746-1.181l-3.492-2.359
		c-0.252,0.188-0.602,0.409-1.051,0.661c-0.447,0.251-0.932,0.538-1.451,0.861c-0.52,0.322-1.049,0.672-1.592,1.05
		C394.48,45.354,393.988,45.76,393.549,46.192z M408.84,23.621c0-3.256-1.063-4.885-3.186-4.885c-1.164,0-2.258,0.638-3.281,1.912
		c-1.336,1.73-2.234,4.059-2.689,6.984c-0.143,0.865-0.213,1.616-0.213,2.254c0,0.637,0.051,1.251,0.154,1.841
		c0.102,0.59,0.279,1.129,0.531,1.616c0.58,1.164,1.447,1.746,2.596,1.746c0.738,0,1.514-0.413,2.324-1.239
		c0.809-0.825,1.432-1.624,1.863-2.395c0.434-0.771,0.791-1.581,1.074-2.431C408.564,27.373,408.84,25.572,408.84,23.621z"/>
</g>
<g>
	<path fill="#58595B" d="M68.62,62.033c2.826,0,3.927,1.533,3.305,4.598l-1.868,8.478c-0.144,0.575-0.407,1.15-0.79,1.725
		c-1.103,1.533-2.468,2.299-4.095,2.299h-20.62l-21.331,83.747c-0.573,2.076-2.001,3.14-4.287,3.188H6.645
		c-0.858,0-1.621-0.334-2.288-1.005c-0.668-0.67-0.858-1.58-0.57-2.729l21.191-83.2H3.065c-0.336,0-0.695-0.023-1.078-0.072
		c-1.868-0.334-2.419-2.035-1.653-5.101l2.299-9.053c0.191-0.718,0.406-1.293,0.646-1.724c0.526-0.766,1.748-1.149,3.664-1.149
		H68.62z"/>
	<path fill="#58595B" d="M79.438,65.194c0.575-2.059,2.012-3.113,4.311-3.161h12.214c0.622,0,1.173,0.144,1.652,0.431
		c1.245,0.815,1.652,2.155,1.221,4.023l-24.571,96.418c-0.57,2.061-1.997,3.114-4.279,3.161H57.862c-0.619,0-1.166-0.144-1.64-0.431
		c-1.239-0.814-1.644-2.155-1.212-4.023L79.438,65.194z"/>
	<path fill="#58595B" d="M115.792,79.132h-4.886c-0.671,0-1.293-0.17-1.868-0.512c-1.246-0.779-1.629-1.972-1.149-3.58l2.586-10.084
		c0.095-0.389,0.263-0.779,0.503-1.169c0.766-1.169,1.7-1.753,2.802-1.753h30.362c4.084,0,7.717,0.632,10.899,1.895
		c7.17,2.915,10.755,8.6,10.755,17.054c0,5.213-1.108,11.272-3.322,18.176c-2.498,7.751-6.268,13.622-11.308,17.614
		c-5.325,4.415-14.325,6.692-26.999,6.833l-10.03,39.318c-0.575,2.047-2.012,3.096-4.31,3.143H97.617
		c-0.622,0-1.173-0.143-1.651-0.429c-1.245-0.811-1.652-2.146-1.221-4.007L115.792,79.132z M127.835,109.236l5.287-0.356
		c0.429-0.047,0.881-0.094,1.357-0.143c4.429-0.663,7.833-3.178,10.216-7.543c0.238-0.759,0.523-1.685,0.856-2.775
		c1.714-6.452,2.572-11.695,2.572-15.727c0-0.521-0.215-1.043-0.646-1.566c-0.958-1.139-2.18-1.708-3.664-1.708
		c-0.528-0.047-1.892-0.072-4.094-0.072c-1.821,0-3.233-0.024-4.239-0.071L127.835,109.236z"/>
	<path fill="#58595B" d="M197.328,101.117h24.5c2.634,0.049,3.64,1.581,3.018,4.599l-1.725,8.478
		c-0.144,0.575-0.384,1.149-0.718,1.725c-1.054,1.533-2.347,2.299-3.88,2.299h-25.529l-7.798,30.75h27.518
		c2.825,0.049,3.927,1.581,3.305,4.599l-1.868,8.478c-0.144,0.575-0.407,1.149-0.79,1.725c-1.103,1.533-2.468,2.299-4.095,2.299
		h-44.013c-0.62,0-1.192-0.143-1.715-0.428c-1.242-0.808-1.623-2.141-1.144-3.997l20.936-82.51h-5.102
		c-0.384,0-0.743-0.023-1.078-0.072c-1.916-0.334-2.467-2.035-1.652-5.101l2.299-9.053c0.19-0.862,0.418-1.556,0.682-2.083
		c0.263-0.526,0.994-0.79,2.191-0.79h53.198c2.825,0.048,3.927,1.581,3.305,4.598l-1.868,8.478c-0.144,0.575-0.407,1.15-0.79,1.725
		c-1.103,1.533-2.467,2.299-4.095,2.299h-27.517L197.328,101.117z"/>
	<path fill="#58595B" d="M248.852,79.132h-4.886c-0.671,0-1.293-0.17-1.868-0.512c-1.246-0.779-1.629-1.972-1.149-3.58l2.586-10.084
		c0.095-0.389,0.263-0.779,0.503-1.169c0.766-1.169,1.7-1.753,2.802-1.753h30.362c4.084,0,7.717,0.632,10.899,1.896
		c7.17,2.917,10.756,8.606,10.756,17.066c0,5.683-1.159,11.841-3.475,18.478c-2.514,7.209-5.298,12.128-8.354,14.753
		c-3.303,3.151-6.48,5.491-9.536,7.019l5.82,38.941c0.734,0.747,1.103,1.447,1.103,2.101c-0.145,2.521-1.491,3.78-4.038,3.78
		h-11.391c-0.48,0-0.961-0.095-1.441-0.287c-2.02-0.909-3.269-3.208-3.75-6.897l-4.313-34.681l-2.447,0.159l-9.837,38.563
		c-0.575,2.047-2.012,3.096-4.31,3.143h-12.212c-0.622,0-1.173-0.143-1.651-0.429c-1.245-0.811-1.652-2.146-1.221-4.007
		L248.852,79.132z M260.734,109.864l5.381-0.788c1.388-0.19,2.177-0.333,2.369-0.43c3.921-1.337,6.504-2.984,7.749-4.942
		c1.195-2.005,1.984-3.725,2.367-5.157c1.722-6.399,2.583-11.677,2.583-15.833c0-0.764-0.384-1.456-1.149-2.078
		c-0.671-0.572-1.485-0.954-2.442-1.146c-0.575-0.094-2.179-0.166-4.813-0.214c-1.293,0-2.707,0-4.239,0L260.734,109.864z"/>
	<path fill="#58595B" d="M321.633,138.047l-12.326,25.307c-1.077,2.097-2.855,3.048-5.334,2.856l-10.947-0.411
		c-0.046,0-0.14,0-0.281,0c-3.02-0.229-3.956-1.923-2.806-5.08l48.782-93.917c0.321-0.526,0.711-1.053,1.169-1.579
		c1.787-1.956,3.919-2.934,6.395-2.934l15.814-0.113c0.87-0.047,1.672,0.097,2.406,0.431c2.115,1.006,3.101,3.161,2.957,6.466
		l-5.318,93.831c-0.287,2.013-1.724,3.067-4.309,3.162h-11.633c-0.335,0-0.671-0.023-1.005-0.071
		c-1.82-0.383-2.586-1.652-2.298-3.809l1.611-24.14H321.633z M330.038,120.947h15.615l2.473-37.026L330.038,120.947z"/>
	<path fill="#58595B" d="M447.18,62.033c2.826,0,3.928,1.533,3.305,4.598l-1.867,8.478c-0.145,0.575-0.408,1.15-0.791,1.725
		c-1.102,1.533-2.467,2.299-4.094,2.299h-20.621l-21.33,83.747c-0.572,2.076-2.002,3.14-4.287,3.188h-12.291
		c-0.857,0-1.621-0.334-2.287-1.005c-0.668-0.67-0.857-1.58-0.57-2.729l21.191-83.2h-21.914c-0.334,0-0.693-0.023-1.076-0.072
		c-1.869-0.334-2.42-2.035-1.652-5.101l2.299-9.053c0.189-0.718,0.406-1.293,0.646-1.724c0.525-0.766,1.748-1.149,3.664-1.149
		H447.18z"/>
	<path fill="#58595B" d="M438.814,107.42c3.258-12.592,7.879-23.005,13.867-31.24c7.473-10.198,15.83-15.297,25.074-15.297
		c0.432,0,0.861,0,1.293,0c7.711,0.43,13.41,2.814,17.1,7.154c3.641,4.293,5.461,11.591,5.461,21.892
		c0,8.588-1.629,19.333-4.887,32.239c-2.346,9.308-5.34,17.344-8.98,24.108c-7.424,13.673-16.693,20.509-27.805,20.509
		c-7.615,0-13.436-1.941-17.459-5.825c-5.029-4.986-7.543-13.832-7.543-26.537C434.936,126.476,436.229,117.475,438.814,107.42z
		 M459.219,111.961c-2.873,10.942-4.311,19.846-4.311,26.71c0,7.344,1.629,11.015,4.887,11.015c0.719,0,1.436-0.096,2.154-0.288
		c2.059-0.672,4.264-2.976,6.609-6.911c2.971-5.183,5.939-13.679,8.91-25.486c3.018-12.335,4.525-21.598,4.525-27.791
		c0-6.191-1.508-9.311-4.525-9.359c-3.449,0-6.42,2.064-8.91,6.191C465.541,91.034,462.428,99.674,459.219,111.961z"/>
	<path fill="#58595B" d="M519.355,79.132h-4.887c-0.67,0-1.293-0.17-1.867-0.512c-1.246-0.779-1.629-1.972-1.15-3.58l2.588-10.084
		c0.096-0.389,0.262-0.779,0.502-1.169c0.766-1.169,1.699-1.753,2.803-1.753h30.361c4.084,0,7.717,0.632,10.9,1.896
		c7.17,2.917,10.756,8.606,10.756,17.066c0,5.683-1.16,11.841-3.475,18.478c-2.514,7.209-5.299,12.128-8.354,14.753
		c-3.303,3.151-6.48,5.491-9.537,7.019l5.82,38.941c0.734,0.747,1.104,1.447,1.104,2.101c-0.145,2.521-1.492,3.78-4.039,3.78H539.49
		c-0.48,0-0.961-0.095-1.441-0.287c-2.02-0.909-3.27-3.208-3.75-6.897l-4.313-34.681l-2.447,0.159l-9.838,38.563
		c-0.574,2.047-2.012,3.096-4.309,3.143H501.18c-0.621,0-1.172-0.143-1.65-0.429c-1.246-0.811-1.652-2.146-1.223-4.007
		L519.355,79.132z M531.238,109.864l5.381-0.788c1.387-0.19,2.176-0.333,2.369-0.43c3.92-1.337,6.504-2.984,7.748-4.942
		c1.195-2.005,1.984-3.725,2.367-5.157c1.721-6.399,2.582-11.677,2.582-15.833c0-0.764-0.383-1.456-1.148-2.078
		c-0.672-0.572-1.486-0.954-2.443-1.146c-0.574-0.094-2.18-0.166-4.813-0.214c-1.293,0-2.707,0-4.238,0L531.238,109.864z"/>
</g>
</svg>
