<?xml version="1.0" encoding="utf-8"?>
<!-- Generator: Adobe Illustrator 15.1.0, SVG Export Plug-In . SVG Version: 6.00 Build 0)  -->
<!DOCTYPE svg PUBLIC "-//W3C//DTD SVG 1.1//EN" "http://www.w3.org/Graphics/SVG/1.1/DTD/svg11.dtd">
<svg version="1.1" id="Layer_1" xmlns="http://www.w3.org/2000/svg" xmlns:xlink="http://www.w3.org/1999/xlink" x="0px" y="0px"
	 width="334.472px" height="305.026px" viewBox="0 0 334.472 305.026" enable-background="new 0 0 334.472 305.026"
	 xml:space="preserve">
<g>
	<polygon fill="#58595B" points="334.472,120.156 321.521,126.53 334.472,105.971 334.472,80.366 300.207,107.336 329.323,28.216 
		275.363,92.992 287.396,9.546 248.078,84.126 242.499,0 219.548,81.129 196.602,0 191.021,84.126 151.704,9.546 163.738,92.992 
		109.773,28.216 138.895,107.336 72.646,55.192 117.577,126.53 41.932,89.298 100.715,149.736 18.984,129.049 89.053,175.943 
		4.802,172.7 83.081,204.003 0,218.348 83.081,232.691 4.802,263.992 89.053,260.751 22.897,305.026 29.33,305.026 100.715,286.955 
		83.14,305.026 334.472,305.026 	"/>
	<g>
		<g>
			<path fill="#FBEE92" d="M126.612,210.141c0.224-0.082,0.46-0.133,0.706-0.15c1.303-0.008,1.782,1.194,1.438,3.606
				c-0.046,0.271-0.08,0.573-0.102,0.907c-0.537,4.95-0.352,11.956,0.554,21.018c1.433,14.238,3.98,24.854,7.643,31.849
				c1.632-5.717,2.849-12.367,3.647-19.952c1.198-11.724,1.131-21.91-0.203-30.56l0.156-0.167c-0.552-3.568-0.898-6.381-1.037-8.434
				c0-0.397,0.021-0.787,0.063-1.165c0.183-1.191,0.981-2.05,2.397-2.57l8.688-3.198c1.312-0.3,2.082,0.504,2.313,2.414
				c0.242,10.285,1.624,19.897,4.147,28.836c3.585,12.719,6.78,21.246,9.583,25.584c0.039-0.088,0.074-0.191,0.104-0.311
				c2.632-8.115,3.473-19.035,2.518-32.76c-0.738-10.574-2.218-19.37-4.439-26.388c-0.18-0.587-0.285-1.02-0.315-1.299
				c-0.101-0.761,0.359-1.33,1.379-1.705l8.594-3.164c0.731-0.27,1.334-0.399,1.807-0.393c0.667,0.045,1.219,0.658,1.654,1.84
				c1.411,3.834,2.556,9.108,3.434,15.822c1.573,12.045,1.723,23.616,0.448,34.714c-1.519,13.583-4.926,22.871-10.22,27.867
				l-6.661,2.452c-0.193,0.071-0.392,0.126-0.597,0.165c-0.847,0.168-1.685-0.231-2.511-1.198
				c-3.536-4.283-7.001-10.445-10.396-18.481c-0.162,1.038-0.35,2.105-0.563,3.2c-1.82,9.738-4.257,17.8-7.312,24.184l-7.188,2.646
				c-1.385,0.475-2.547,0.176-3.484-0.894c-0.886-1.124-1.775-2.357-2.668-3.697c-5.203-8.023-9.258-18.448-12.164-31.271
				c-2.865-12.514-3.831-23.711-2.898-33.596c0.129-1.027,0.827-1.792,2.094-2.295L126.612,210.141z M170.16,261.257
				c0.271,0.046,0.504,0.032,0.697-0.039L170.16,261.257z"/>
			<path fill="#FBEE92" d="M182.034,224.113c-0.919-9.196-0.394-17.277,1.578-24.241c2.48-8.636,6.804-14.088,12.969-16.357
				c0.288-0.105,0.575-0.212,0.862-0.317c5.249-1.607,9.637-1.416,13.162,0.572c3.481,1.971,6.487,6.391,9.017,13.261
				c2.108,5.729,3.66,13.296,4.657,22.702c0.719,6.785,0.695,12.879-0.071,18.285c-1.595,10.942-6.099,17.777-13.51,20.506
				c-5.079,1.87-9.438,2.004-13.075,0.4c-4.578-2.091-8.427-7.372-11.547-15.847C184.125,237.776,182.778,231.455,182.034,224.113z
				 M196.758,222.132c0.771,8.005,1.998,14.296,3.684,18.874c1.803,4.898,3.79,6.947,5.963,6.147
				c0.479-0.177,0.935-0.416,1.367-0.722c1.208-0.954,2.112-3.031,2.711-6.231c0.708-4.187,0.603-10.583-0.314-19.188
				c-1.017-8.968-2.284-15.517-3.805-19.646c-1.52-4.129-3.292-5.839-5.316-5.131c-2.301,0.847-3.775,2.952-4.423,6.317
				C195.838,206.623,195.882,213.15,196.758,222.132z"/>
			<path fill="#FBEE92" d="M238.842,168.828c0.223-0.083,0.459-0.133,0.705-0.15c1.304-0.009,1.782,1.193,1.438,3.606
				c-0.046,0.271-0.08,0.573-0.102,0.907c-0.536,4.95-0.352,11.956,0.555,21.018c1.432,14.238,3.979,24.853,7.643,31.848
				c1.632-5.716,2.848-12.367,3.646-19.952c1.199-11.723,1.131-21.909-0.203-30.56l0.156-0.167c-0.552-3.568-0.898-6.38-1.037-8.433
				c0-0.398,0.021-0.787,0.064-1.166c0.182-1.191,0.981-2.049,2.396-2.57l8.689-3.198c1.311-0.3,2.081,0.505,2.313,2.414
				c0.241,10.286,1.624,19.898,4.146,28.836c3.585,12.719,6.78,21.247,9.583,25.585c0.04-0.088,0.074-0.191,0.104-0.312
				c2.633-8.114,3.473-19.035,2.519-32.759c-0.738-10.574-2.218-19.371-4.44-26.389c-0.18-0.587-0.284-1.02-0.314-1.299
				c-0.101-0.76,0.358-1.33,1.378-1.705l8.595-3.164c0.731-0.269,1.334-0.398,1.807-0.392c0.667,0.045,1.219,0.658,1.653,1.84
				c1.411,3.834,2.556,9.107,3.434,15.821c1.573,12.046,1.723,23.616,0.448,34.715c-1.518,13.582-4.926,22.871-10.22,27.867
				l-6.661,2.451c-0.192,0.071-0.391,0.127-0.596,0.166c-0.848,0.167-1.686-0.232-2.512-1.198
				c-3.535-4.284-7.001-10.446-10.395-18.482c-0.162,1.039-0.35,2.105-0.563,3.2c-1.821,9.738-4.258,17.801-7.313,24.185
				l-7.188,2.646c-1.385,0.475-2.547,0.176-3.484-0.894c-0.886-1.123-1.775-2.357-2.667-3.696
				c-5.204-8.023-9.259-18.448-12.165-31.272c-2.865-12.514-3.83-23.71-2.898-33.596c0.129-1.026,0.828-1.791,2.094-2.294
				L238.842,168.828z M282.389,219.944c0.271,0.045,0.504,0.031,0.697-0.04L282.389,219.944z"/>
			<path fill="#FBEE92" d="M303.917,200.157l-6.921-51.321c-0.187-1.491,0.513-2.547,2.099-3.168l11.021-4.057
				c1.705-0.591,2.679-0.114,2.921,1.428l1.17,53.439c0.07,1.57-0.63,2.626-2.1,3.166l-5.271,1.94
				C305.132,202.178,304.159,201.701,303.917,200.157z M318.493,212.26c0.48,1.306,0.528,2.667,0.143,4.083
				c-0.672,2.313-2.302,3.946-4.89,4.899l-1.342,0.494c-1.311,0.482-2.788,0.458-4.435-0.073c-2.206-0.771-3.649-2.083-4.331-3.935
				c-0.491-1.334-0.507-2.707-0.047-4.116c0.758-2.276,2.431-3.892,5.019-4.845l1.246-0.458c1.405-0.518,2.856-0.519,4.353-0.001
				C316.351,209.003,317.779,210.319,318.493,212.26z"/>
		</g>
	</g>
</g>
</svg>
